/* XPM */
static char *result[] = {
/* columns rows colors chars-per-pixel */
"64 64 4 1 ",
"  c #181818",
". c #84FF21",
"X c #5ABDFF",
"o c white",
/* pixels */
"....oooo....oooo....oooo....oooo....oooo....oooo....oooo....oooo",
"....oooo....oooo....oooo....oooo....oooo....oooo....oooo....oooo",
"....oooo....oooo....oooo....oooo....oooo....oooo....oooo....oooo",
"....oooo....oooo....oooo....oooo....oooo....oooo....oooo....oooo",
"oooo....ooooXXXXooooXXXXoooo....oooo....ooooXXXXooooXXXXoooo....",
"oooo....ooooXXXXooooXXXXoooo....oooo....ooooXXXXooooXXXXoooo....",
"oooo....ooooXXXXooooXXXXoooo....oooo....ooooXXXXooooXXXXoooo....",
"oooo....ooooXXXXooooXXXXoooo....oooo....ooooXXXXooooXXXXoooo....",
"....XXXX....oooo....                        oooo....oooo....XXXX",
"....XXXX....oooo....                        oooo....oooo....XXXX",
"....XXXX....oooo....                        oooo....oooo....XXXX",
"....XXXX....oooo....                        oooo....oooo....XXXX",
"oooo....oooo                                        ....oooo....",
"oooo....oooo                                        ....oooo....",
"oooo....oooo                                        ....oooo....",
"oooo....oooo                                        ....oooo....",
"....oooo....                                        oooo....oooo",
"....oooo....                                        oooo....oooo",
"....oooo....                                        oooo....oooo",
"....oooo....                                        oooo....oooo",
"oooo....                                                oooo....",
"oooo....                                                oooo....",
"oooo....                                                oooo....",
"oooo....                                                oooo....",
"....oooo                                                ....oooo",
"....oooo                                                ....oooo",
"....oooo                                                ....oooo",
"....oooo                                                ....oooo",
"oooo....                                                oooo....",
"oooo....                                                oooo....",
"oooo....                                                oooo....",
"oooo....                                                oooo....",
"....oooo                                                ....oooo",
"....oooo                                                ....oooo",
"....oooo                                                ....oooo",
"....oooo                                                ....oooo",
"oooo....                                                oooo....",
"oooo....                                                oooo....",
"oooo....                                                oooo....",
"oooo....                                                oooo....",
"....XXXX                                                ....XXXX",
"....XXXX                                                ....XXXX",
"....XXXX                                                ....XXXX",
"....XXXX                                                ....XXXX",
"oooo....                                                oooo....",
"oooo....                                                oooo....",
"oooo....                                                oooo....",
"oooo....                                                oooo....",
"....oooo                                                ....oooo",
"....oooo                                                ....oooo",
"....oooo                                                ....oooo",
"....oooo                                                ....oooo",
"oooo....            XXXX    XXXX    XXXX    XXXX        oooo....",
"oooo....            XXXX    XXXX    XXXX    XXXX        oooo....",
"oooo....            XXXX    XXXX    XXXX    XXXX        oooo....",
"oooo....            XXXX    XXXX    XXXX    XXXX        oooo....",
"....oooo....    XXXX    XXXX    XXXX    XXXX    XXXX........oooo",
"....oooo....    XXXX    XXXX    XXXX    XXXX    XXXX........oooo",
"....oooo....    XXXX    XXXX    XXXX    XXXX    XXXX........oooo",
"....oooo....    XXXX    XXXX    XXXX    XXXX    XXXX........oooo",
"................    XXXX    XXXX    XXXX    XXXX    ............",
"................    XXXX    XXXX    XXXX    XXXX    ............",
"................    XXXX    XXXX    XXXX    XXXX    ............",
"................    XXXX    XXXX    XXXX    XXXX    ............"
};
