/* XPM */
static char *result[] = {
/* columns rows colors chars-per-pixel */
"64 64 6 1 ",
"  c gray8",
". c #B97A56",
"X c #84FF21",
"o c #FFCA18",
"O c #5ABDFF",
"+ c white",
/* pixels */
"XXXX++++XXXX++++XXXX++++XXXX++++XXXX++++XXXX++++XXXX++++XXXX++++",
"XXXX++++XXXX++++XXXX++++XXXX++++XXXX++++XXXX++++XXXX++++XXXX++++",
"XXXX++++XXXX++++XXXX++++XXXX++++XXXX++++XXXX++++XXXX++++XXXX++++",
"XXXX++++XXXX++++XXXX++++XXXX++++XXXX++++XXXX++++XXXX++++XXXX++++",
"++++XXXX++++OOOO++++OOOO++++    ++++XXXX++++OOOO++++OOOO++++XXXX",
"++++XXXX++++OOOO++++OOOO++++    ++++XXXX++++OOOO++++OOOO++++XXXX",
"++++XXXX++++OOOO++++OOOO++++    ++++XXXX++++OOOO++++OOOO++++XXXX",
"++++XXXX++++OOOO++++OOOO++++    ++++XXXX++++OOOO++++OOOO++++XXXX",
"XXXXOOOO            ++++    oooo    OOOOXXXX++++            OOOO",
"XXXXOOOO            ++++    oooo    OOOOXXXX++++            OOOO",
"XXXXOOOO            ++++    oooo    OOOOXXXX++++            OOOO",
"XXXXOOOO            ++++    oooo    OOOOXXXX++++            OOOO",
"++++XXXX                oooooooo    XXXX++++    oooo        XXXX",
"++++XXXX                oooooooo    XXXX++++    oooo        XXXX",
"++++XXXX                oooooooo    XXXX++++    oooo        XXXX",
"++++XXXX                oooooooo    XXXX++++    oooo        XXXX",
"XXXX++++XXXX        oooooooooooo            oooooooo    XXXX++++",
"XXXX++++XXXX        oooooooooooo            oooooooo    XXXX++++",
"XXXX++++XXXX        oooooooooooo            oooooooo    XXXX++++",
"XXXX++++XXXX        oooooooooooo            oooooooo    XXXX++++",
"++++XXXX++++XXXX        oooooooooooo    oooooooo    XXXX++++XXXX",
"++++XXXX++++XXXX        oooooooooooo    oooooooo    XXXX++++XXXX",
"++++XXXX++++XXXX        oooooooooooo    oooooooo    XXXX++++XXXX",
"++++XXXX++++XXXX        oooooooooooo    oooooooo    XXXX++++XXXX",
"XXXX++++XXXX++++    oooo    oooooooo    oooooooo    ++++XXXX++++",
"XXXX++++XXXX++++    oooo    oooooooo    oooooooo    ++++XXXX++++",
"XXXX++++XXXX++++    oooo    oooooooo    oooooooo    ++++XXXX++++",
"XXXX++++XXXX++++    oooo    oooooooo    oooooooo    ++++XXXX++++",
"++++XXXX++++XXXX    oooooooo    oooo    oooooooo    XXXX++++XXXX",
"++++XXXX++++XXXX    oooooooo    oooo    oooooooo    XXXX++++XXXX",
"++++XXXX++++XXXX    oooooooo    oooo    oooooooo    XXXX++++XXXX",
"++++XXXX++++XXXX    oooooooo    oooo    oooooooo    XXXX++++XXXX",
"XXXX++++XXXX    oooo        ....oooo    oooooooooooo    XXXX++++",
"XXXX++++XXXX    oooo        ....oooo    oooooooooooo    XXXX++++",
"XXXX++++XXXX    oooo        ....oooo    oooooooooooo    XXXX++++",
"XXXX++++XXXX    oooo        ....oooo    oooooooooooo    XXXX++++",
"++++XXXX++++    ....    ........        ............    ++++XXXX",
"++++XXXX++++    ....    ........        ............    ++++XXXX",
"++++XXXX++++    ....    ........        ............    ++++XXXX",
"++++XXXX++++    ....    ........        ............    ++++XXXX",
"XXXXOOOOXXXX    oooooooo    ........oooooooooooooooo    XXXXOOOO",
"XXXXOOOOXXXX    oooooooo    ........oooooooooooooooo    XXXXOOOO",
"XXXXOOOOXXXX    oooooooo    ........oooooooooooooooo    XXXXOOOO",
"XXXXOOOOXXXX    oooooooo    ........oooooooooooooooo    XXXXOOOO",
"++++XXXX++++    ............    ....................    ++++XXXX",
"++++XXXX++++    ............    ....................    ++++XXXX",
"++++XXXX++++    ............    ....................    ++++XXXX",
"++++XXXX++++    ............    ....................    ++++XXXX",
"XXXX++++XXXX    oooooooooooooooooooooooooooooooooooo    XXXX++++",
"XXXX++++XXXX    oooooooooooooooooooooooooooooooooooo    XXXX++++",
"XXXX++++XXXX    oooooooooooooooooooooooooooooooooooo    XXXX++++",
"XXXX++++XXXX    oooooooooooooooooooooooooooooooooooo    XXXX++++",
"++++XXXX++++XXXX    oooooooo            oooooooo    XXXX++++XXXX",
"++++XXXX++++XXXX    oooooooo            oooooooo    XXXX++++XXXX",
"++++XXXX++++XXXX    oooooooo            oooooooo    XXXX++++XXXX",
"++++XXXX++++XXXX    oooooooo            oooooooo    XXXX++++XXXX",
"XXXX++++XXXX++++XXXX        ++++XXXX++++        XXXX++++XXXX++++",
"XXXX++++XXXX++++XXXX        ++++XXXX++++        XXXX++++XXXX++++",
"XXXX++++XXXX++++XXXX        ++++XXXX++++        XXXX++++XXXX++++",
"XXXX++++XXXX++++XXXX        ++++XXXX++++        XXXX++++XXXX++++",
"++++XXXX++++XXXX++++XXXX++++XXXX++++XXXX++++XXXX++++XXXX++++XXXX",
"++++XXXX++++XXXX++++XXXX++++XXXX++++XXXX++++XXXX++++XXXX++++XXXX",
"++++XXXX++++XXXX++++XXXX++++XXXX++++XXXX++++XXXX++++XXXX++++XXXX",
"++++XXXX++++XXXX++++XXXX++++XXXX++++XXXX++++XXXX++++XXXX++++XXXX"
};
