/* XPM */
static char *result[] = {
/* columns rows colors chars-per-pixel */
"64 64 5 1 ",
"  c gray8",
". c #84FF21",
"X c #FFCA18",
"o c #5ABDFF",
"O c white",
/* pixels */
"....OOOO....OOOO....OOOO....OOOO....OOOO....OOOO....OOOO....OOOO",
"....OOOO....OOOO....OOOO....OOOO....OOOO....OOOO....OOOO....OOOO",
"....OOOO....OOOO....OOOO....OOOO....OOOO....OOOO....OOOO....OOOO",
"....OOOO....OOOO....OOOO....OOOO....OOOO....OOOO....OOOO....OOOO",
"OOOO....            ....OOOO....OOOO....OOOO....            ....",
"OOOO....            ....OOOO....OOOO....OOOO....            ....",
"OOOO....            ....OOOO....OOOO....OOOO....            ....",
"OOOO....            ....OOOO....OOOO....OOOO....            ....",
"....oooo        XXXX    ....oooo....oooo....    XXXX        oooo",
"....oooo        XXXX    ....oooo....oooo....    XXXX        oooo",
"....oooo        XXXX    ....oooo....oooo....    XXXX        oooo",
"....oooo        XXXX    ....oooo....oooo....    XXXX        oooo",
"OOOO            XXXXXXXX                    XXXXXXXX    OOOO....",
"OOOO            XXXXXXXX                    XXXXXXXX    OOOO....",
"OOOO            XXXXXXXX                    XXXXXXXX    OOOO....",
"OOOO            XXXXXXXX                    XXXXXXXX    OOOO....",
"    XXXXXXXXXXXX    XXXXXXXXXXXXXXXXXXXXXXXXXXXX    OOOO....OOOO",
"    XXXXXXXXXXXX    XXXXXXXXXXXXXXXXXXXXXXXXXXXX    OOOO....OOOO",
"    XXXXXXXXXXXX    XXXXXXXXXXXXXXXXXXXXXXXXXXXX    OOOO....OOOO",
"    XXXXXXXXXXXX    XXXXXXXXXXXXXXXXXXXXXXXXXXXX    OOOO....OOOO",
"OOOO    XXXXXXXX    XXXX    XXXXXXXXXXXX    XXXX    ....OOOO....",
"OOOO    XXXXXXXX    XXXX    XXXXXXXXXXXX    XXXX    ....OOOO....",
"OOOO    XXXXXXXX    XXXX    XXXXXXXXXXXX    XXXX    ....OOOO....",
"OOOO    XXXXXXXX    XXXX    XXXXXXXXXXXX    XXXX    ....OOOO....",
"....OOOO    XXXX    XXXXXXXXXXXX    XXXXXXXXXXXX    OOOO....OOOO",
"....OOOO    XXXX    XXXXXXXXXXXX    XXXXXXXXXXXX    OOOO....OOOO",
"....OOOO    XXXX    XXXXXXXXXXXX    XXXXXXXXXXXX    OOOO....OOOO",
"....OOOO    XXXX    XXXXXXXXXXXX    XXXXXXXXXXXX    OOOO....OOOO",
"OOOO            XXXX    XXXX            XXXX    XXXX    OOOO....",
"OOOO            XXXX    XXXX            XXXX    XXXX    OOOO....",
"OOOO            XXXX    XXXX            XXXX    XXXX    OOOO....",
"OOOO            XXXX    XXXX            XXXX    XXXX    OOOO....",
"    XXXXXXXX    XXXXXXXXXXXXXXXXXXXXXXXXXXXXXXXXXXXX    ....OOOO",
"    XXXXXXXX    XXXXXXXXXXXXXXXXXXXXXXXXXXXXXXXXXXXX    ....OOOO",
"    XXXXXXXX    XXXXXXXXXXXXXXXXXXXXXXXXXXXXXXXXXXXX    ....OOOO",
"    XXXXXXXX    XXXXXXXXXXXXXXXXXXXXXXXXXXXXXXXXXXXX    ....OOOO",
"OOOO    XXXX    XXXXXXXX    XXXXXXXXXXXX    XXXXXXXX    OOOO....",
"OOOO    XXXX    XXXXXXXX    XXXXXXXXXXXX    XXXXXXXX    OOOO....",
"OOOO    XXXX    XXXXXXXX    XXXXXXXXXXXX    XXXXXXXX    OOOO....",
"OOOO    XXXX    XXXXXXXX    XXXXXXXXXXXX    XXXXXXXX    OOOO....",
"....oooo        XXXX        XXXXXXXXXXXX        XXXX    ....oooo",
"....oooo        XXXX        XXXXXXXXXXXX        XXXX    ....oooo",
"....oooo        XXXX        XXXXXXXXXXXX        XXXX    ....oooo",
"....oooo        XXXX        XXXXXXXXXXXX        XXXX    ....oooo",
"OOOO....OOOO    XXXXXXXXXXXXXXXXXXXXXXXXXXXXXXXXXXXX    OOOO....",
"OOOO....OOOO    XXXXXXXXXXXXXXXXXXXXXXXXXXXXXXXXXXXX    OOOO....",
"OOOO....OOOO    XXXXXXXXXXXXXXXXXXXXXXXXXXXXXXXXXXXX    OOOO....",
"OOOO....OOOO    XXXXXXXXXXXXXXXXXXXXXXXXXXXXXXXXXXXX    OOOO....",
"....OOOO....OOOO    XXXXXXXXXXXXXXXXXXXX            OOOO....OOOO",
"....OOOO....OOOO    XXXXXXXXXXXXXXXXXXXX            OOOO....OOOO",
"....OOOO....OOOO    XXXXXXXXXXXXXXXXXXXX            OOOO....OOOO",
"....OOOO....OOOO    XXXXXXXXXXXXXXXXXXXX            OOOO....OOOO",
"OOOO....OOOO....OOOO                    XXXXXXXX    ....OOOO....",
"OOOO....OOOO....OOOO                    XXXXXXXX    ....OOOO....",
"OOOO....OOOO....OOOO                    XXXXXXXX    ....OOOO....",
"OOOO....OOOO....OOOO                    XXXXXXXX    ....OOOO....",
"....OOOO....OOOO....OOOO....OOOO....OOOO        ....OOOO....OOOO",
"....OOOO....OOOO....OOOO....OOOO....OOOO        ....OOOO....OOOO",
"....OOOO....OOOO....OOOO....OOOO....OOOO        ....OOOO....OOOO",
"....OOOO....OOOO....OOOO....OOOO....OOOO        ....OOOO....OOOO",
"OOOO....OOOO....OOOO....OOOO....OOOO....OOOO....OOOO....OOOO....",
"OOOO....OOOO....OOOO....OOOO....OOOO....OOOO....OOOO....OOOO....",
"OOOO....OOOO....OOOO....OOOO....OOOO....OOOO....OOOO....OOOO....",
"OOOO....OOOO....OOOO....OOOO....OOOO....OOOO....OOOO....OOOO...."
};
