/* XPM */
static char *result[] = {
/* columns rows colors chars-per-pixel */
"64 64 7 1 ",
"  c gray8",
". c #EC1C24",
"X c #B97A56",
"o c #84FF21",
"O c #FFCA18",
"+ c #5ABDFF",
"@ c white",
/* pixels */
"oooo@@@@oooo@@@@oooo@@@@oooo@@@@oooo@@@@oooo@@@@oooo@@@@oooo@@@@",
"oooo@@@@oooo@@@@oooo@@@@oooo@@@@oooo@@@@oooo@@@@oooo@@@@oooo@@@@",
"oooo@@@@oooo@@@@oooo@@@@oooo@@@@oooo@@@@oooo@@@@oooo@@@@oooo@@@@",
"oooo@@@@oooo@@@@oooo@@@@oooo@@@@oooo@@@@oooo@@@@oooo@@@@oooo@@@@",
"@@@@oooo@@@@++++@@@@++++@@@@oooo@@@@oooo        @@@@oooo@@@@oooo",
"@@@@oooo@@@@++++@@@@++++@@@@oooo@@@@oooo        @@@@oooo@@@@oooo",
"@@@@oooo@@@@++++@@@@++++@@@@oooo@@@@oooo        @@@@oooo@@@@oooo",
"@@@@oooo@@@@++++@@@@++++@@@@oooo@@@@oooo        @@@@oooo@@@@oooo",
"oooo++++oooo@@@@oooo@@@@oooo                                    ",
"oooo++++oooo@@@@oooo@@@@oooo                                    ",
"oooo++++oooo@@@@oooo@@@@oooo                                    ",
"oooo++++oooo@@@@oooo@@@@oooo                                    ",
"@@@@oooo@@@@oooo            OOOOOOOO            OOOOOOOOOOOO    ",
"@@@@oooo@@@@oooo            OOOOOOOO            OOOOOOOOOOOO    ",
"@@@@oooo@@@@oooo            OOOOOOOO            OOOOOOOOOOOO    ",
"@@@@oooo@@@@oooo            OOOOOOOO            OOOOOOOOOOOO    ",
"oooo@@@@oooo    OOOOOOOOOOOOOOOOOOOOOOOO    OOOOOOOOOOOO    @@@@",
"oooo@@@@oooo    OOOOOOOOOOOOOOOOOOOOOOOO    OOOOOOOOOOOO    @@@@",
"oooo@@@@oooo    OOOOOOOOOOOOOOOOOOOOOOOO    OOOOOOOOOOOO    @@@@",
"oooo@@@@oooo    OOOOOOOOOOOOOOOOOOOOOOOO    OOOOOOOOOOOO    @@@@",
"@@@@oooo    OOOOOOOOOOOOOOOOOOOOOOOO        OOOOOOOO    @@@@oooo",
"@@@@oooo    OOOOOOOOOOOOOOOOOOOOOOOO        OOOOOOOO    @@@@oooo",
"@@@@oooo    OOOOOOOOOOOOOOOOOOOOOOOO        OOOOOOOO    @@@@oooo",
"@@@@oooo    OOOOOOOOOOOOOOOOOOOOOOOO        OOOOOOOO    @@@@oooo",
"oooo@@@@    OOOOOOOOOOOOOOOOOOOOOOOO    OOOOOOOO    @@@@oooo@@@@",
"oooo@@@@    OOOOOOOOOOOOOOOOOOOOOOOO    OOOOOOOO    @@@@oooo@@@@",
"oooo@@@@    OOOOOOOOOOOOOOOOOOOOOOOO    OOOOOOOO    @@@@oooo@@@@",
"oooo@@@@    OOOOOOOOOOOOOOOOOOOOOOOO    OOOOOOOO    @@@@oooo@@@@",
"@@@@    OOOOOOOO    OOOOOOOOOOOOOOOOOOOO    OOOO            oooo",
"@@@@    OOOOOOOO    OOOOOOOOOOOOOOOOOOOO    OOOO            oooo",
"@@@@    OOOOOOOO    OOOOOOOOOOOOOOOOOOOO    OOOO            oooo",
"@@@@    OOOOOOOO    OOOOOOOOOOOOOOOOOOOO    OOOO            oooo",
"oooo    OOOOOOOOOOOOOOOO....OOOOOOOOOOOO        OOOOOOOO    @@@@",
"oooo    OOOOOOOOOOOOOOOO....OOOOOOOOOOOO        OOOOOOOO    @@@@",
"oooo    OOOOOOOOOOOOOOOO....OOOOOOOOOOOO        OOOOOOOO    @@@@",
"oooo    OOOOOOOOOOOOOOOO....OOOOOOOOOOOO        OOOOOOOO    @@@@",
"@@@@oooo    OOOOOOOOOOOOOOOOOOOOXXXXXXXXXXXX    XXXX    @@@@oooo",
"@@@@oooo    OOOOOOOOOOOOOOOOOOOOXXXXXXXXXXXX    XXXX    @@@@oooo",
"@@@@oooo    OOOOOOOOOOOOOOOOOOOOXXXXXXXXXXXX    XXXX    @@@@oooo",
"@@@@oooo    OOOOOOOOOOOOOOOOOOOOXXXXXXXXXXXX    XXXX    @@@@oooo",
"oooo++++    OOOO    OOOOOOOOOOOOOOOOOOOOOOOO    XXXXXXXX    ++++",
"oooo++++    OOOO    OOOOOOOOOOOOOOOOOOOOOOOO    XXXXXXXX    ++++",
"oooo++++    OOOO    OOOOOOOOOOOOOOOOOOOOOOOO    XXXXXXXX    ++++",
"oooo++++    OOOO    OOOOOOOOOOOOOOOOOOOOOOOO    XXXXXXXX    ++++",
"@@@@oooo    OOOO        OOOOOOOOXXXXXXXXXXXX    XXXX    @@@@oooo",
"@@@@oooo    OOOO        OOOOOOOOXXXXXXXXXXXX    XXXX    @@@@oooo",
"@@@@oooo    OOOO        OOOOOOOOXXXXXXXXXXXX    XXXX    @@@@oooo",
"@@@@oooo    OOOO        OOOOOOOOXXXXXXXXXXXX    XXXX    @@@@oooo",
"oooo@@@@        OOOOOOOOOOOOOOOOOOOOOOOO            @@@@oooo@@@@",
"oooo@@@@        OOOOOOOOOOOOOOOOOOOOOOOO            @@@@oooo@@@@",
"oooo@@@@        OOOOOOOOOOOOOOOOOOOOOOOO            @@@@oooo@@@@",
"oooo@@@@        OOOOOOOOOOOOOOOOOOOOOOOO            @@@@oooo@@@@",
"@@@@    OOOOOOOO    OOOOOOOOOOOOOOOO        OOOO    oooo@@@@oooo",
"@@@@    OOOOOOOO    OOOOOOOOOOOOOOOO        OOOO    oooo@@@@oooo",
"@@@@    OOOOOOOO    OOOOOOOOOOOOOOOO        OOOO    oooo@@@@oooo",
"@@@@    OOOOOOOO    OOOOOOOOOOOOOOOO        OOOO    oooo@@@@oooo",
"oooo@@@@        oooo                OOOOOOOO    oooo@@@@oooo@@@@",
"oooo@@@@        oooo                OOOOOOOO    oooo@@@@oooo@@@@",
"oooo@@@@        oooo                OOOOOOOO    oooo@@@@oooo@@@@",
"oooo@@@@        oooo                OOOOOOOO    oooo@@@@oooo@@@@",
"@@@@oooo@@@@oooo@@@@oooo@@@@oooo@@@@        oooo@@@@oooo@@@@oooo",
"@@@@oooo@@@@oooo@@@@oooo@@@@oooo@@@@        oooo@@@@oooo@@@@oooo",
"@@@@oooo@@@@oooo@@@@oooo@@@@oooo@@@@        oooo@@@@oooo@@@@oooo",
"@@@@oooo@@@@oooo@@@@oooo@@@@oooo@@@@        oooo@@@@oooo@@@@oooo"
};
