/* XPM */
static char *result[] = {
/* columns rows colors chars-per-pixel */
"64 64 6 1 ",
"  c gray8",
". c #B97A56",
"X c #84FF21",
"o c #FFCA18",
"O c #5ABDFF",
"+ c white",
/* pixels */
"XXXX++++XXXX++++XXXX++++XXXX++++XXXX++++XXXX++++XXXX++++XXXX++++",
"XXXX++++XXXX++++XXXX++++XXXX++++XXXX++++XXXX++++XXXX++++XXXX++++",
"XXXX++++XXXX++++XXXX++++XXXX++++XXXX++++XXXX++++XXXX++++XXXX++++",
"XXXX++++XXXX++++XXXX++++XXXX++++XXXX++++XXXX++++XXXX++++XXXX++++",
"++++XXXX++++        OOOO++++XXXX++++XXXX++++XXXX            XXXX",
"++++XXXX++++        OOOO++++XXXX++++XXXX++++XXXX            XXXX",
"++++XXXX++++        OOOO++++XXXX++++XXXX++++XXXX            XXXX",
"++++XXXX++++        OOOO++++XXXX++++XXXX++++XXXX            XXXX",
"XXXXOOOO    oooo        XXXXOOOOXXXXOOOOXXXX    oooo        OOOO",
"XXXXOOOO    oooo        XXXXOOOOXXXXOOOOXXXX    oooo        OOOO",
"XXXXOOOO    oooo        XXXXOOOOXXXXOOOOXXXX    oooo        OOOO",
"XXXXOOOO    oooo        XXXXOOOOXXXXOOOOXXXX    oooo        OOOO",
"++++    oooooooooooo                        oooooooo    ++++XXXX",
"++++    oooooooooooo                        oooooooo    ++++XXXX",
"++++    oooooooooooo                        oooooooo    ++++XXXX",
"++++    oooooooooooo                        oooooooo    ++++XXXX",
"XXXX++++    oooooooo    oooooooooooooooooooooooo    ++++XXXX++++",
"XXXX++++    oooooooo    oooooooooooooooooooooooo    ++++XXXX++++",
"XXXX++++    oooooooo    oooooooooooooooooooooooo    ++++XXXX++++",
"XXXX++++    oooooooo    oooooooooooooooooooooooo    ++++XXXX++++",
"++++XXXX++++    oooooooo    oooooooooooooooooooo    XXXX++++XXXX",
"++++XXXX++++    oooooooo    oooooooooooooooooooo    XXXX++++XXXX",
"++++XXXX++++    oooooooo    oooooooooooooooooooo    XXXX++++XXXX",
"++++XXXX++++    oooooooo    oooooooooooooooooooo    XXXX++++XXXX",
"XXXX        oooooooooooo    oooooooooooooooooooo    ++++XXXX++++",
"XXXX        oooooooooooo    oooooooooooooooooooo    ++++XXXX++++",
"XXXX        oooooooooooo    oooooooooooooooooooo    ++++XXXX++++",
"XXXX        oooooooooooo    oooooooooooooooooooo    ++++XXXX++++",
"++++    oooooooo        oooooooooooooooooooooooooooo    ++++XXXX",
"++++    oooooooo        oooooooooooooooooooooooooooo    ++++XXXX",
"++++    oooooooo        oooooooooooooooooooooooooooo    ++++XXXX",
"++++    oooooooo        oooooooooooooooooooooooooooo    ++++XXXX",
"XXXX++++    ........    ............................    XXXX++++",
"XXXX++++    ........    ............................    XXXX++++",
"XXXX++++    ........    ............................    XXXX++++",
"XXXX++++    ........    ............................    XXXX++++",
"++++XXXX++++    ........    oooooooooooooooooooooooo    ++++XXXX",
"++++XXXX++++    ........    oooooooooooooooooooooooo    ++++XXXX",
"++++XXXX++++    ........    oooooooooooooooooooooooo    ++++XXXX",
"++++XXXX++++    ........    oooooooooooooooooooooooo    ++++XXXX",
"XXXXOOOOXXXX        ................................    XXXXOOOO",
"XXXXOOOOXXXX        ................................    XXXXOOOO",
"XXXXOOOOXXXX        ................................    XXXXOOOO",
"XXXXOOOOXXXX        ................................    XXXXOOOO",
"++++XXXX++++    oooooooooooooooooooooooooooooooooooo    ++++XXXX",
"++++XXXX++++    oooooooooooooooooooooooooooooooooooo    ++++XXXX",
"++++XXXX++++    oooooooooooooooooooooooooooooooooooo    ++++XXXX",
"++++XXXX++++    oooooooooooooooooooooooooooooooooooo    ++++XXXX",
"XXXX++++XXXX    oooo        oooooooooooooooooooo    ++++XXXX++++",
"XXXX++++XXXX    oooo        oooooooooooooooooooo    ++++XXXX++++",
"XXXX++++XXXX    oooo        oooooooooooooooooooo    ++++XXXX++++",
"XXXX++++XXXX    oooo        oooooooooooooooooooo    ++++XXXX++++",
"++++XXXX++++XXXX    oooooooo                    ++++XXXX++++XXXX",
"++++XXXX++++XXXX    oooooooo                    ++++XXXX++++XXXX",
"++++XXXX++++XXXX    oooooooo                    ++++XXXX++++XXXX",
"++++XXXX++++XXXX    oooooooo                    ++++XXXX++++XXXX",
"XXXX++++XXXX++++XXXX        ++++XXXX++++XXXX++++XXXX++++XXXX++++",
"XXXX++++XXXX++++XXXX        ++++XXXX++++XXXX++++XXXX++++XXXX++++",
"XXXX++++XXXX++++XXXX        ++++XXXX++++XXXX++++XXXX++++XXXX++++",
"XXXX++++XXXX++++XXXX        ++++XXXX++++XXXX++++XXXX++++XXXX++++",
"++++XXXX++++XXXX++++XXXX++++XXXX++++XXXX++++XXXX++++XXXX++++XXXX",
"++++XXXX++++XXXX++++XXXX++++XXXX++++XXXX++++XXXX++++XXXX++++XXXX",
"++++XXXX++++XXXX++++XXXX++++XXXX++++XXXX++++XXXX++++XXXX++++XXXX",
"++++XXXX++++XXXX++++XXXX++++XXXX++++XXXX++++XXXX++++XXXX++++XXXX"
};
