/* XPM */
static char *result[] = {
/* columns rows colors chars-per-pixel */
"64 64 5 1 ",
"  c gray8",
". c #84FF21",
"X c #FFCA18",
"o c #5ABDFF",
"O c white",
/* pixels */
"....OOOO....OOOO....OOOO....OOOO....OOOO....OOOO....OOOO....OOOO",
"....OOOO....OOOO....OOOO....OOOO....OOOO....OOOO....OOOO....OOOO",
"....OOOO....OOOO....OOOO....OOOO....OOOO....OOOO....OOOO....OOOO",
"....OOOO....OOOO....OOOO....OOOO....OOOO....OOOO....OOOO....OOOO",
"OOOO....OOOOooooOOOOooooOOOO....    ....OOOOooooOOOOooooOOOO....",
"OOOO....OOOOooooOOOOooooOOOO....    ....OOOOooooOOOOooooOOOO....",
"OOOO....OOOOooooOOOOooooOOOO....    ....OOOOooooOOOOooooOOOO....",
"OOOO....OOOOooooOOOOooooOOOO....    ....OOOOooooOOOOooooOOOO....",
"....            ....OOOO....    XXXX    ....            ....oooo",
"....            ....OOOO....    XXXX    ....            ....oooo",
"....            ....OOOO....    XXXX    ....            ....oooo",
"....            ....OOOO....    XXXX    ....            ....oooo",
"OOOO        XXXX    ....OOOO    XXXXXXXX    XXXX        OOOO....",
"OOOO        XXXX    ....OOOO    XXXXXXXX    XXXX        OOOO....",
"OOOO        XXXX    ....OOOO    XXXXXXXX    XXXX        OOOO....",
"OOOO        XXXX    ....OOOO    XXXXXXXX    XXXX        OOOO....",
"....OOOO    XXXXXXXX                    XXXXXXXX    OOOO....OOOO",
"....OOOO    XXXXXXXX                    XXXXXXXX    OOOO....OOOO",
"....OOOO    XXXXXXXX                    XXXXXXXX    OOOO....OOOO",
"....OOOO    XXXXXXXX                    XXXXXXXX    OOOO....OOOO",
"OOOO....OOOO    XXXXXXXXXXXXXXXXXXXXXXXXXXXX    OOOO....OOOO....",
"OOOO....OOOO    XXXXXXXXXXXXXXXXXXXXXXXXXXXX    OOOO....OOOO....",
"OOOO....OOOO    XXXXXXXXXXXXXXXXXXXXXXXXXXXX    OOOO....OOOO....",
"OOOO....OOOO    XXXXXXXXXXXXXXXXXXXXXXXXXXXX    OOOO....OOOO....",
"....OOOO....    XXXX    XXXXXXXXXXXX    XXXX    ....OOOO....OOOO",
"....OOOO....    XXXX    XXXXXXXXXXXX    XXXX    ....OOOO....OOOO",
"....OOOO....    XXXX    XXXXXXXXXXXX    XXXX    ....OOOO....OOOO",
"....OOOO....    XXXX    XXXXXXXXXXXX    XXXX    ....OOOO....OOOO",
"OOOO....OOOO    XXXXXXXXXXXX    XXXXXXXXXXXX    OOOO....OOOO....",
"OOOO....OOOO    XXXXXXXXXXXX    XXXXXXXXXXXX    OOOO....OOOO....",
"OOOO....OOOO    XXXXXXXXXXXX    XXXXXXXXXXXX    OOOO....OOOO....",
"OOOO....OOOO    XXXXXXXXXXXX    XXXXXXXXXXXX    OOOO....OOOO....",
"....OOOO    XXXX    XXXX            XXXX    XXXX    OOOO....OOOO",
"....OOOO    XXXX    XXXX            XXXX    XXXX    OOOO....OOOO",
"....OOOO    XXXX    XXXX            XXXX    XXXX    OOOO....OOOO",
"....OOOO    XXXX    XXXX            XXXX    XXXX    OOOO....OOOO",
"OOOO....    XXXXXXXXXXXXXXXXXXXXXXXXXXXXXXXXXXXX    ooooOOOO....",
"OOOO....    XXXXXXXXXXXXXXXXXXXXXXXXXXXXXXXXXXXX    ooooOOOO....",
"OOOO....    XXXXXXXXXXXXXXXXXXXXXXXXXXXXXXXXXXXX    ooooOOOO....",
"OOOO....    XXXXXXXXXXXXXXXXXXXXXXXXXXXXXXXXXXXX    ooooOOOO....",
"....oooo    XXXXXXXX    XXXXXXXXXXXX    XXXXXXXX    OOOO....oooo",
"....oooo    XXXXXXXX    XXXXXXXXXXXX    XXXXXXXX    OOOO....oooo",
"....oooo    XXXXXXXX    XXXXXXXXXXXX    XXXXXXXX    OOOO....oooo",
"....oooo    XXXXXXXX    XXXXXXXXXXXX    XXXXXXXX    OOOO....oooo",
"OOOO....    XXXX        XXXXXXXXXXXX        XXXX    ....OOOO....",
"OOOO....    XXXX        XXXXXXXXXXXX        XXXX    ....OOOO....",
"OOOO....    XXXX        XXXXXXXXXXXX        XXXX    ....OOOO....",
"OOOO....    XXXX        XXXXXXXXXXXX        XXXX    ....OOOO....",
"....OOOO    XXXXXXXXXXXXXXXXXXXXXXXXXXXXXXXXXXXX    OOOO....OOOO",
"....OOOO    XXXXXXXXXXXXXXXXXXXXXXXXXXXXXXXXXXXX    OOOO....OOOO",
"....OOOO    XXXXXXXXXXXXXXXXXXXXXXXXXXXXXXXXXXXX    OOOO....OOOO",
"....OOOO    XXXXXXXXXXXXXXXXXXXXXXXXXXXXXXXXXXXX    OOOO....OOOO",
"OOOO....OOOO    XXXXXXXX            XXXXXXXX    OOOO....OOOO....",
"OOOO....OOOO    XXXXXXXX            XXXXXXXX    OOOO....OOOO....",
"OOOO....OOOO    XXXXXXXX            XXXXXXXX    OOOO....OOOO....",
"OOOO....OOOO    XXXXXXXX            XXXXXXXX    OOOO....OOOO....",
"....OOOO....OOOO        ....OOOO....        OOOO....OOOO....OOOO",
"....OOOO....OOOO        ....OOOO....        OOOO....OOOO....OOOO",
"....OOOO....OOOO        ....OOOO....        OOOO....OOOO....OOOO",
"....OOOO....OOOO        ....OOOO....        OOOO....OOOO....OOOO",
"OOOO....OOOO....OOOO....OOOO....OOOO....OOOO....OOOO....OOOO....",
"OOOO....OOOO....OOOO....OOOO....OOOO....OOOO....OOOO....OOOO....",
"OOOO....OOOO....OOOO....OOOO....OOOO....OOOO....OOOO....OOOO....",
"OOOO....OOOO....OOOO....OOOO....OOOO....OOOO....OOOO....OOOO...."
};
