/* XPM */
static char *result[] = {
/* columns rows colors chars-per-pixel */
"64 64 7 1 ",
"  c gray8",
". c #EC1C24",
"X c #B97A56",
"o c #84FF21",
"O c #FFCA18",
"+ c #5ABDFF",
"@ c white",
/* pixels */
"oooo@@@@oooo@@@@oooo@@@@oooo@@@@oooo@@@@oooo@@@@oooo@@@@oooo@@@@",
"oooo@@@@oooo@@@@oooo@@@@oooo@@@@oooo@@@@oooo@@@@oooo@@@@oooo@@@@",
"oooo@@@@oooo@@@@oooo@@@@oooo@@@@oooo@@@@oooo@@@@oooo@@@@oooo@@@@",
"oooo@@@@oooo@@@@oooo@@@@oooo@@@@oooo@@@@oooo@@@@oooo@@@@oooo@@@@",
"@@@@oooo@@@@++++        @@@@oooo@@@@oooo@@@@++++@@@@++++@@@@oooo",
"@@@@oooo@@@@++++        @@@@oooo@@@@oooo@@@@++++@@@@++++@@@@oooo",
"@@@@oooo@@@@++++        @@@@oooo@@@@oooo@@@@++++@@@@++++@@@@oooo",
"@@@@oooo@@@@++++        @@@@oooo@@@@oooo@@@@++++@@@@++++@@@@oooo",
"                                    ++++oooo@@@@oooo@@@@oooo++++",
"                                    ++++oooo@@@@oooo@@@@oooo++++",
"                                    ++++oooo@@@@oooo@@@@oooo++++",
"                                    ++++oooo@@@@oooo@@@@oooo++++",
"    OOOOOOOOOOOO            OOOOOOOO            @@@@oooo@@@@oooo",
"    OOOOOOOOOOOO            OOOOOOOO            @@@@oooo@@@@oooo",
"    OOOOOOOOOOOO            OOOOOOOO            @@@@oooo@@@@oooo",
"    OOOOOOOOOOOO            OOOOOOOO            @@@@oooo@@@@oooo",
"oooo    OOOOOOOOOOOO    OOOOOOOOOOOOOOOOOOOOOOOO    @@@@oooo@@@@",
"oooo    OOOOOOOOOOOO    OOOOOOOOOOOOOOOOOOOOOOOO    @@@@oooo@@@@",
"oooo    OOOOOOOOOOOO    OOOOOOOOOOOOOOOOOOOOOOOO    @@@@oooo@@@@",
"oooo    OOOOOOOOOOOO    OOOOOOOOOOOOOOOOOOOOOOOO    @@@@oooo@@@@",
"@@@@oooo    OOOOOOOO        OOOOOOOOOOOOOOOOOOOOOOOO    @@@@oooo",
"@@@@oooo    OOOOOOOO        OOOOOOOOOOOOOOOOOOOOOOOO    @@@@oooo",
"@@@@oooo    OOOOOOOO        OOOOOOOOOOOOOOOOOOOOOOOO    @@@@oooo",
"@@@@oooo    OOOOOOOO        OOOOOOOOOOOOOOOOOOOOOOOO    @@@@oooo",
"oooo@@@@oooo    OOOOOOOO    OOOOOOOOOOOOOOOOOOOOOOOO    oooo@@@@",
"oooo@@@@oooo    OOOOOOOO    OOOOOOOOOOOOOOOOOOOOOOOO    oooo@@@@",
"oooo@@@@oooo    OOOOOOOO    OOOOOOOOOOOOOOOOOOOOOOOO    oooo@@@@",
"oooo@@@@oooo    OOOOOOOO    OOOOOOOOOOOOOOOOOOOOOOOO    oooo@@@@",
"@@@@            OOOO    OOOOOOOOOOOOOOOOOOOO    OOOOOOOO    oooo",
"@@@@            OOOO    OOOOOOOOOOOOOOOOOOOO    OOOOOOOO    oooo",
"@@@@            OOOO    OOOOOOOOOOOOOOOOOOOO    OOOOOOOO    oooo",
"@@@@            OOOO    OOOOOOOOOOOOOOOOOOOO    OOOOOOOO    oooo",
"oooo    OOOOOOOO        OOOOOOOOOOOO....OOOOOOOOOOOOOOOO    @@@@",
"oooo    OOOOOOOO        OOOOOOOOOOOO....OOOOOOOOOOOOOOOO    @@@@",
"oooo    OOOOOOOO        OOOOOOOOOOOO....OOOOOOOOOOOOOOOO    @@@@",
"oooo    OOOOOOOO        OOOOOOOOOOOO....OOOOOOOOOOOOOOOO    @@@@",
"@@@@oooo    XXXX    XXXXXXXXXXXXOOOOOOOOOOOOOOOOOOOO    @@@@oooo",
"@@@@oooo    XXXX    XXXXXXXXXXXXOOOOOOOOOOOOOOOOOOOO    @@@@oooo",
"@@@@oooo    XXXX    XXXXXXXXXXXXOOOOOOOOOOOOOOOOOOOO    @@@@oooo",
"@@@@oooo    XXXX    XXXXXXXXXXXXOOOOOOOOOOOOOOOOOOOO    @@@@oooo",
"oooo    XXXXXXXX    OOOOOOOOOOOOOOOOOOOOOOOO    OOOO    oooo++++",
"oooo    XXXXXXXX    OOOOOOOOOOOOOOOOOOOOOOOO    OOOO    oooo++++",
"oooo    XXXXXXXX    OOOOOOOOOOOOOOOOOOOOOOOO    OOOO    oooo++++",
"oooo    XXXXXXXX    OOOOOOOOOOOOOOOOOOOOOOOO    OOOO    oooo++++",
"@@@@oooo    XXXX    XXXXXXXXXXXXOOOOOOOO        OOOO    @@@@oooo",
"@@@@oooo    XXXX    XXXXXXXXXXXXOOOOOOOO        OOOO    @@@@oooo",
"@@@@oooo    XXXX    XXXXXXXXXXXXOOOOOOOO        OOOO    @@@@oooo",
"@@@@oooo    XXXX    XXXXXXXXXXXXOOOOOOOO        OOOO    @@@@oooo",
"oooo@@@@oooo            OOOOOOOOOOOOOOOOOOOOOOOO        oooo@@@@",
"oooo@@@@oooo            OOOOOOOOOOOOOOOOOOOOOOOO        oooo@@@@",
"oooo@@@@oooo            OOOOOOOOOOOOOOOOOOOOOOOO        oooo@@@@",
"oooo@@@@oooo            OOOOOOOOOOOOOOOOOOOOOOOO        oooo@@@@",
"@@@@oooo@@@@    OOOO        OOOOOOOOOOOOOOOO    OOOOOOOO    oooo",
"@@@@oooo@@@@    OOOO        OOOOOOOOOOOOOOOO    OOOOOOOO    oooo",
"@@@@oooo@@@@    OOOO        OOOOOOOOOOOOOOOO    OOOOOOOO    oooo",
"@@@@oooo@@@@    OOOO        OOOOOOOOOOOOOOOO    OOOOOOOO    oooo",
"oooo@@@@oooo@@@@    OOOOOOOO                @@@@        oooo@@@@",
"oooo@@@@oooo@@@@    OOOOOOOO                @@@@        oooo@@@@",
"oooo@@@@oooo@@@@    OOOOOOOO                @@@@        oooo@@@@",
"oooo@@@@oooo@@@@    OOOOOOOO                @@@@        oooo@@@@",
"@@@@oooo@@@@oooo@@@@        oooo@@@@oooo@@@@oooo@@@@oooo@@@@oooo",
"@@@@oooo@@@@oooo@@@@        oooo@@@@oooo@@@@oooo@@@@oooo@@@@oooo",
"@@@@oooo@@@@oooo@@@@        oooo@@@@oooo@@@@oooo@@@@oooo@@@@oooo",
"@@@@oooo@@@@oooo@@@@        oooo@@@@oooo@@@@oooo@@@@oooo@@@@oooo"
};
