/* XPM */
static char *result[] = {
/* columns rows colors chars-per-pixel */
"64 64 4 1 ",
"  c gray8",
". c #151514",
"X c #FDECA6",
"o c white",
/* pixels */
"oooooooooooooooooooooooooooooooooooooooooooooooooooooooooooooooo",
"oooooooooooooooooooooooooooooooooooooooooooooooooooooooooooooooo",
"oooooooooooooooooooooooooooooooooooooooooooooooooooooooooooooooo",
"oooooooooooooooooooooooooooooooooooooooooooooooooooooooooooooooo",
"oooooooooooooooooooooooooooooooo....oooooooooooooooooooooooooooo",
"oooooooooooooooooooooooooooooooo....oooooooooooooooooooooooooooo",
"oooooooooooooooooooooooooooooooo....oooooooooooooooooooooooooooo",
"oooooooooooooooooooooooooooooooo....oooooooooooooooooooooooooooo",
"oooo............oooooooooooo....XXXX....oooo............oooooooo",
"oooo............oooooooooooo....XXXX....oooo............oooooooo",
"oooo............oooooooooooo....XXXX....oooo............oooooooo",
"oooo............oooooooooooo....XXXX....oooo............oooooooo",
"oooo....    XXXX....oooooooo....XXXXXXXX....XXXX    ....oooooooo",
"oooo....    XXXX....oooooooo....XXXXXXXX....XXXX    ....oooooooo",
"oooo....    XXXX....oooooooo....XXXXXXXX....XXXX    ....oooooooo",
"oooo....    XXXX....oooooooo....XXXXXXXX....XXXX    ....oooooooo",
"oooooooo....XXXXXXXX........            XXXXXXXX....oooooooooooo",
"oooooooo....XXXXXXXX........            XXXXXXXX....oooooooooooo",
"oooooooo....XXXXXXXX........            XXXXXXXX....oooooooooooo",
"oooooooo....XXXXXXXX........            XXXXXXXX....oooooooooooo",
"oooooooooooo....XXXXXXXXXXXXXXXXXXXXXXXXXXXX....oooooooooooooooo",
"oooooooooooo....XXXXXXXXXXXXXXXXXXXXXXXXXXXX....oooooooooooooooo",
"oooooooooooo....XXXXXXXXXXXXXXXXXXXXXXXXXXXX....oooooooooooooooo",
"oooooooooooo....XXXXXXXXXXXXXXXXXXXXXXXXXXXX....oooooooooooooooo",
"oooooooooooo....XXXX    XXXXXXXXXXXX    XXXX....oooooooooooooooo",
"oooooooooooo....XXXX    XXXXXXXXXXXX    XXXX....oooooooooooooooo",
"oooooooooooo....XXXX    XXXXXXXXXXXX    XXXX....oooooooooooooooo",
"oooooooooooo....XXXX    XXXXXXXXXXXX    XXXX....oooooooooooooooo",
"oooooooooooo....XXXXXXXXXXXX    XXXXXXXXXXXX....oooooooooooooooo",
"oooooooooooo....XXXXXXXXXXXX    XXXXXXXXXXXX....oooooooooooooooo",
"oooooooooooo....XXXXXXXXXXXX    XXXXXXXXXXXX....oooooooooooooooo",
"oooooooooooo....XXXXXXXXXXXX    XXXXXXXXXXXX....oooooooooooooooo",
"oooooooo....XXXX    XXXX            XXXX    XXXX....oooooooooooo",
"oooooooo....XXXX    XXXX            XXXX    XXXX....oooooooooooo",
"oooooooo....XXXX    XXXX            XXXX    XXXX....oooooooooooo",
"oooooooo....XXXX    XXXX            XXXX    XXXX....oooooooooooo",
"oooooooo....XXXXXXXXXXXXXXXXXXXXXXXXXXXXXXXXXXXX....oooooooooooo",
"oooooooo....XXXXXXXXXXXXXXXXXXXXXXXXXXXXXXXXXXXX....oooooooooooo",
"oooooooo....XXXXXXXXXXXXXXXXXXXXXXXXXXXXXXXXXXXX....oooooooooooo",
"oooooooo....XXXXXXXXXXXXXXXXXXXXXXXXXXXXXXXXXXXX....oooooooooooo",
"oooooooo....XXXXXXXX    XXXXXXXXXXXX    XXXXXXXX....oooooooooooo",
"oooooooo....XXXXXXXX    XXXXXXXXXXXX    XXXXXXXX....oooooooooooo",
"oooooooo....XXXXXXXX    XXXXXXXXXXXX    XXXXXXXX....oooooooooooo",
"oooooooo....XXXXXXXX    XXXXXXXXXXXX    XXXXXXXX....oooooooooooo",
"oooooooo....XXXX        XXXXXXXXXXXX        XXXX....oooooooooooo",
"oooooooo....XXXX        XXXXXXXXXXXX        XXXX....oooooooooooo",
"oooooooo....XXXX        XXXXXXXXXXXX        XXXX....oooooooooooo",
"oooooooo....XXXX        XXXXXXXXXXXX        XXXX....oooooooooooo",
"oooooooo....XXXXXXXXXXXXXXXXXXXXXXXXXXXXXXXXXXXX....oooooooooooo",
"oooooooo....XXXXXXXXXXXXXXXXXXXXXXXXXXXXXXXXXXXX....oooooooooooo",
"oooooooo....XXXXXXXXXXXXXXXXXXXXXXXXXXXXXXXXXXXX....oooooooooooo",
"oooooooo....XXXXXXXXXXXXXXXXXXXXXXXXXXXXXXXXXXXX....oooooooooooo",
"oooooooooooo....XXXXXXXX............XXXXXXXX....oooooooooooooooo",
"oooooooooooo....XXXXXXXX............XXXXXXXX....oooooooooooooooo",
"oooooooooooo....XXXXXXXX............XXXXXXXX....oooooooooooooooo",
"oooooooooooo....XXXXXXXX............XXXXXXXX....oooooooooooooooo",
"oooooooooooooooo........oooooooooooo........oooooooooooooooooooo",
"oooooooooooooooo........oooooooooooo........oooooooooooooooooooo",
"oooooooooooooooo........oooooooooooo........oooooooooooooooooooo",
"oooooooooooooooo........oooooooooooo........oooooooooooooooooooo",
"oooooooooooooooooooooooooooooooooooooooooooooooooooooooooooooooo",
"oooooooooooooooooooooooooooooooooooooooooooooooooooooooooooooooo",
"oooooooooooooooooooooooooooooooooooooooooooooooooooooooooooooooo",
"oooooooooooooooooooooooooooooooooooooooooooooooooooooooooooooooo"
};
