/* XPM */
static char *result[] = {
/* columns rows colors chars-per-pixel */
"64 64 5 1 ",
"  c #25131A",
". c #C09344",
"X c #FFD569",
"o c #FFF1CC",
"O c None",
/* pixels */
"OOOOOOOOOOOOOOOOOOOOOOOOOOOOOOOOOOOOOOOOOOOOOOOOOOOOOOOOOOOOOOOO",
"OOOOOOOOOOOOOOOOOOOOOOOOOOOOOOOOOOOOOOOOOOOOOOOOOOOOOOOOOOOOOOOO",
"OOOOOOOOOOOOOOOOOOOOOOOOOOOOOOOOOOOOOOOOOOOOOOOOOOOOOOOOOOOOOOOO",
"OOOOOOOOOOOOOOOOOOOOOOOOOOOOOOOOOOOOOOOOOOOOOOOOOOOOOOOOOOOOOOOO",
"OOOOOOOOOOOOOOOOOOOOOOOOOOOOOOOOOOOOOOOOOOOOOOOOOOOOOOOOOOOOOOOO",
"OOOOOOOOOOOOOOOOOOOOOOOOOOOOOOOOOOOOOOOOOOOOOOOOOOOOOOOOOOOOOOOO",
"OOOOOOOOOOOOOOOOOOOOOOOOOOOOOOOOOOOOOOOOOOOOOOOOOOOOOOOOOOOOOOOO",
"OOOOOOOOOOOOOOOOOOOOOOOOOOOOOOOOOOOOOOOOOOOOOOOOOOOOOOOOOOOOOOOO",
"OOOOOOOOOOOOOOOOOOOOOOOOOOOOOOOOOOOOOOOOOOOOOOOOOOOOOOOOOOOOOOOO",
"OOOOOOOOOOOOOOOOOOOOOOOOOOOOOOOOOOOOOOOOOOOOOOOOOOOOOOOOOOOOOOOO",
"OOOOOOOOOOOOOOOOOOOOOOOOOOOOOOOOOOOOOOOOOOOOOOOOOOOOOOOOOOOOOOOO",
"OOOOOOOOOOOOOOOOOOOOOOOOOOOOOOOOOOOOOOOOOOOOOOOOOOOOOOOOOOOOOOOO",
"OOOOOOOOOOOOOOOOOOOOOOOO                OOOOOOOOOOOOOOOOOOOOOOOO",
"OOOOOOOOOOOOOOOOOOOOOOOO                OOOOOOOOOOOOOOOOOOOOOOOO",
"OOOOOOOOOOOOOOOOOOOOOOOO                OOOOOOOOOOOOOOOOOOOOOOOO",
"OOOOOOOOOOOOOOOOOOOOOOOO                OOOOOOOOOOOOOOOOOOOOOOOO",
"OOOOOOOOOOOOOOOOOOOO    ................    OOOOOOOOOOOOOOOOOOOO",
"OOOOOOOOOOOOOOOOOOOO    ................    OOOOOOOOOOOOOOOOOOOO",
"OOOOOOOOOOOOOOOOOOOO    ................    OOOOOOOOOOOOOOOOOOOO",
"OOOOOOOOOOOOOOOOOOOO    ................    OOOOOOOOOOOOOOOOOOOO",
"OOOOOOOOOOOOOOOO    ....ooooooooooooXXXX....    OOOOOOOOOOOOOOOO",
"OOOOOOOOOOOOOOOO    ....ooooooooooooXXXX....    OOOOOOOOOOOOOOOO",
"OOOOOOOOOOOOOOOO    ....ooooooooooooXXXX....    OOOOOOOOOOOOOOOO",
"OOOOOOOOOOOOOOOO    ....ooooooooooooXXXX....    OOOOOOOOOOOOOOOO",
"OOOOOOOOOOOO    ....oooooooo........XXXXoooo....    OOOOOOOOOOOO",
"OOOOOOOOOOOO    ....oooooooo........XXXXoooo....    OOOOOOOOOOOO",
"OOOOOOOOOOOO    ....oooooooo........XXXXoooo....    OOOOOOOOOOOO",
"OOOOOOOOOOOO    ....oooooooo........XXXXoooo....    OOOOOOOOOOOO",
"OOOOOOOOOOOO    ....oooo....ooooXXXX....XXXX....    OOOOOOOOOOOO",
"OOOOOOOOOOOO    ....oooo....ooooXXXX....XXXX....    OOOOOOOOOOOO",
"OOOOOOOOOOOO    ....oooo....ooooXXXX....XXXX....    OOOOOOOOOOOO",
"OOOOOOOOOOOO    ....oooo....ooooXXXX....XXXX....    OOOOOOOOOOOO",
"OOOOOOOOOOOO    ....XXXX....XXXXXXXX....XXXX....    OOOOOOOOOOOO",
"OOOOOOOOOOOO    ....XXXX....XXXXXXXX....XXXX....    OOOOOOOOOOOO",
"OOOOOOOOOOOO    ....XXXX....XXXXXXXX....XXXX....    OOOOOOOOOOOO",
"OOOOOOOOOOOO    ....XXXX....XXXXXXXX....XXXX....    OOOOOOOOOOOO",
"OOOOOOOOOOOO    ....ooooXXXX........XXXXXXXX....    OOOOOOOOOOOO",
"OOOOOOOOOOOO    ....ooooXXXX........XXXXXXXX....    OOOOOOOOOOOO",
"OOOOOOOOOOOO    ....ooooXXXX........XXXXXXXX....    OOOOOOOOOOOO",
"OOOOOOOOOOOO    ....ooooXXXX........XXXXXXXX....    OOOOOOOOOOOO",
"OOOOOOOOOOOOOOOO    ....XXXXXXXXXXXXXXXX....    OOOOOOOOOOOOOOOO",
"OOOOOOOOOOOOOOOO    ....XXXXXXXXXXXXXXXX....    OOOOOOOOOOOOOOOO",
"OOOOOOOOOOOOOOOO    ....XXXXXXXXXXXXXXXX....    OOOOOOOOOOOOOOOO",
"OOOOOOOOOOOOOOOO    ....XXXXXXXXXXXXXXXX....    OOOOOOOOOOOOOOOO",
"OOOOOOOOOOOOOOOOOOOO    ................    OOOOOOOOOOOOOOOOOOOO",
"OOOOOOOOOOOOOOOOOOOO    ................    OOOOOOOOOOOOOOOOOOOO",
"OOOOOOOOOOOOOOOOOOOO    ................    OOOOOOOOOOOOOOOOOOOO",
"OOOOOOOOOOOOOOOOOOOO    ................    OOOOOOOOOOOOOOOOOOOO",
"OOOOOOOOOOOOOOOOOOOOOOOO                OOOOOOOOOOOOOOOOOOOOOOOO",
"OOOOOOOOOOOOOOOOOOOOOOOO                OOOOOOOOOOOOOOOOOOOOOOOO",
"OOOOOOOOOOOOOOOOOOOOOOOO                OOOOOOOOOOOOOOOOOOOOOOOO",
"OOOOOOOOOOOOOOOOOOOOOOOO                OOOOOOOOOOOOOOOOOOOOOOOO",
"OOOOOOOOOOOOOOOOOOOOOOOOOOOOOOOOOOOOOOOOOOOOOOOOOOOOOOOOOOOOOOOO",
"OOOOOOOOOOOOOOOOOOOOOOOOOOOOOOOOOOOOOOOOOOOOOOOOOOOOOOOOOOOOOOOO",
"OOOOOOOOOOOOOOOOOOOOOOOOOOOOOOOOOOOOOOOOOOOOOOOOOOOOOOOOOOOOOOOO",
"OOOOOOOOOOOOOOOOOOOOOOOOOOOOOOOOOOOOOOOOOOOOOOOOOOOOOOOOOOOOOOOO",
"OOOOOOOOOOOOOOOOOOOOOOOOOOOOOOOOOOOOOOOOOOOOOOOOOOOOOOOOOOOOOOOO",
"OOOOOOOOOOOOOOOOOOOOOOOOOOOOOOOOOOOOOOOOOOOOOOOOOOOOOOOOOOOOOOOO",
"OOOOOOOOOOOOOOOOOOOOOOOOOOOOOOOOOOOOOOOOOOOOOOOOOOOOOOOOOOOOOOOO",
"OOOOOOOOOOOOOOOOOOOOOOOOOOOOOOOOOOOOOOOOOOOOOOOOOOOOOOOOOOOOOOOO",
"OOOOOOOOOOOOOOOOOOOOOOOOOOOOOOOOOOOOOOOOOOOOOOOOOOOOOOOOOOOOOOOO",
"OOOOOOOOOOOOOOOOOOOOOOOOOOOOOOOOOOOOOOOOOOOOOOOOOOOOOOOOOOOOOOOO",
"OOOOOOOOOOOOOOOOOOOOOOOOOOOOOOOOOOOOOOOOOOOOOOOOOOOOOOOOOOOOOOOO",
"OOOOOOOOOOOOOOOOOOOOOOOOOOOOOOOOOOOOOOOOOOOOOOOOOOOOOOOOOOOOOOOO"
};
