/* XPM */
static char *result[] = {
/* columns rows colors chars-per-pixel */
"64 64 4 1 ",
"  c #25131A",
". c #C09344",
"X c #FFD569",
"o c None",
/* pixels */
"oooooooooooooooooooooooooooooooooooooooooooooooooooooooooooooooo",
"oooooooooooooooooooooooooooooooooooooooooooooooooooooooooooooooo",
"oooooooooooooooooooooooooooooooooooooooooooooooooooooooooooooooo",
"oooooooooooooooooooooooooooooooooooooooooooooooooooooooooooooooo",
"oooooooooooooooooooooooooooooooooooooooooooooooooooooooooooooooo",
"oooooooooooooooooooooooooooooooooooooooooooooooooooooooooooooooo",
"oooooooooooooooooooooooooooooooooooooooooooooooooooooooooooooooo",
"oooooooooooooooooooooooooooooooooooooooooooooooooooooooooooooooo",
"oooooooooooooooooooooooooooooooooooooooooooooooooooooooooooooooo",
"oooooooooooooooooooooooooooooooooooooooooooooooooooooooooooooooo",
"oooooooooooooooooooooooooooooooooooooooooooooooooooooooooooooooo",
"oooooooooooooooooooooooooooooooooooooooooooooooooooooooooooooooo",
"oooooooooooooooooooooooooooo        oooooooooooooooooooooooooooo",
"oooooooooooooooooooooooooooo        oooooooooooooooooooooooooooo",
"oooooooooooooooooooooooooooo        oooooooooooooooooooooooooooo",
"oooooooooooooooooooooooooooo        oooooooooooooooooooooooooooo",
"oooooooooooooooooooooooo    ........    oooooooooooooooooooooooo",
"oooooooooooooooooooooooo    ........    oooooooooooooooooooooooo",
"oooooooooooooooooooooooo    ........    oooooooooooooooooooooooo",
"oooooooooooooooooooooooo    ........    oooooooooooooooooooooooo",
"oooooooooooooooooooooooo    ....XXXX    oooooooooooooooooooooooo",
"oooooooooooooooooooooooo    ....XXXX    oooooooooooooooooooooooo",
"oooooooooooooooooooooooo    ....XXXX    oooooooooooooooooooooooo",
"oooooooooooooooooooooooo    ....XXXX    oooooooooooooooooooooooo",
"oooooooooooooooooooooooo    ....XXXX    oooooooooooooooooooooooo",
"oooooooooooooooooooooooo    ....XXXX    oooooooooooooooooooooooo",
"oooooooooooooooooooooooo    ....XXXX    oooooooooooooooooooooooo",
"oooooooooooooooooooooooo    ....XXXX    oooooooooooooooooooooooo",
"oooooooooooooooooooooooo    ........    oooooooooooooooooooooooo",
"oooooooooooooooooooooooo    ........    oooooooooooooooooooooooo",
"oooooooooooooooooooooooo    ........    oooooooooooooooooooooooo",
"oooooooooooooooooooooooo    ........    oooooooooooooooooooooooo",
"oooooooooooooooooooooooo    ........    oooooooooooooooooooooooo",
"oooooooooooooooooooooooo    ........    oooooooooooooooooooooooo",
"oooooooooooooooooooooooo    ........    oooooooooooooooooooooooo",
"oooooooooooooooooooooooo    ........    oooooooooooooooooooooooo",
"oooooooooooooooooooooooo    ....XXXX    oooooooooooooooooooooooo",
"oooooooooooooooooooooooo    ....XXXX    oooooooooooooooooooooooo",
"oooooooooooooooooooooooo    ....XXXX    oooooooooooooooooooooooo",
"oooooooooooooooooooooooo    ....XXXX    oooooooooooooooooooooooo",
"oooooooooooooooooooooooo    ....XXXX    oooooooooooooooooooooooo",
"oooooooooooooooooooooooo    ....XXXX    oooooooooooooooooooooooo",
"oooooooooooooooooooooooo    ....XXXX    oooooooooooooooooooooooo",
"oooooooooooooooooooooooo    ....XXXX    oooooooooooooooooooooooo",
"oooooooooooooooooooooooo    ........    oooooooooooooooooooooooo",
"oooooooooooooooooooooooo    ........    oooooooooooooooooooooooo",
"oooooooooooooooooooooooo    ........    oooooooooooooooooooooooo",
"oooooooooooooooooooooooo    ........    oooooooooooooooooooooooo",
"oooooooooooooooooooooooooooo        oooooooooooooooooooooooooooo",
"oooooooooooooooooooooooooooo        oooooooooooooooooooooooooooo",
"oooooooooooooooooooooooooooo        oooooooooooooooooooooooooooo",
"oooooooooooooooooooooooooooo        oooooooooooooooooooooooooooo",
"oooooooooooooooooooooooooooooooooooooooooooooooooooooooooooooooo",
"oooooooooooooooooooooooooooooooooooooooooooooooooooooooooooooooo",
"oooooooooooooooooooooooooooooooooooooooooooooooooooooooooooooooo",
"oooooooooooooooooooooooooooooooooooooooooooooooooooooooooooooooo",
"oooooooooooooooooooooooooooooooooooooooooooooooooooooooooooooooo",
"oooooooooooooooooooooooooooooooooooooooooooooooooooooooooooooooo",
"oooooooooooooooooooooooooooooooooooooooooooooooooooooooooooooooo",
"oooooooooooooooooooooooooooooooooooooooooooooooooooooooooooooooo",
"oooooooooooooooooooooooooooooooooooooooooooooooooooooooooooooooo",
"oooooooooooooooooooooooooooooooooooooooooooooooooooooooooooooooo",
"oooooooooooooooooooooooooooooooooooooooooooooooooooooooooooooooo",
"oooooooooooooooooooooooooooooooooooooooooooooooooooooooooooooooo"
};
