/* XPM */
static char *result[] = {
/* columns rows colors chars-per-pixel */
"64 64 7 1 ",
"  c #25131A",
". c #BF704D",
"X c #62ABD4",
"o c #ADC1CF",
"O c #A7D1E6",
"+ c #CAE6F5",
"@ c None",
/* pixels */
"@@@@@@@@@@@@@@@@@@@@@@@@@@@@@@@@@@@@@@@@@@@@@@@@@@@@@@@@@@@@@@@@",
"@@@@@@@@@@@@@@@@@@@@@@@@@@@@@@@@@@@@@@@@@@@@@@@@@@@@@@@@@@@@@@@@",
"@@@@@@@@@@@@@@@@@@@@@@@@@@@@@@@@@@@@@@@@@@@@@@@@@@@@@@@@@@@@@@@@",
"@@@@@@@@@@@@@@@@@@@@@@@@@@@@@@@@@@@@@@@@@@@@@@@@@@@@@@@@@@@@@@@@",
"@@@@@@@@@@@@@@@@@@@@@@@@@@@@@@@@@@@@@@@@@@@@@@@@@@@@@@@@@@@@@@@@",
"@@@@@@@@@@@@@@@@@@@@@@@@@@@@@@@@@@@@@@@@@@@@@@@@@@@@@@@@@@@@@@@@",
"@@@@@@@@@@@@@@@@@@@@@@@@@@@@@@@@@@@@@@@@@@@@@@@@@@@@@@@@@@@@@@@@",
"@@@@@@@@@@@@@@@@@@@@@@@@@@@@@@@@@@@@@@@@@@@@@@@@@@@@@@@@@@@@@@@@",
"@@@@@@@@@@@@@@@@@@@@@@@@@@@@@@@@@@@@@@@@@@@@@@@@@@@@@@@@@@@@@@@@",
"@@@@@@@@@@@@@@@@@@@@@@@@@@@@@@@@@@@@@@@@@@@@@@@@@@@@@@@@@@@@@@@@",
"@@@@@@@@@@@@@@@@@@@@@@@@@@@@@@@@@@@@@@@@@@@@@@@@@@@@@@@@@@@@@@@@",
"@@@@@@@@@@@@@@@@@@@@@@@@@@@@@@@@@@@@@@@@@@@@@@@@@@@@@@@@@@@@@@@@",
"@@@@@@@@@@@@@@@@@@@@@@@@@@@@@@@@@@@@@@@@@@@@@@@@@@@@@@@@@@@@@@@@",
"@@@@@@@@@@@@@@@@@@@@@@@@@@@@@@@@@@@@@@@@@@@@@@@@@@@@@@@@@@@@@@@@",
"@@@@@@@@@@@@@@@@@@@@@@@@@@@@@@@@@@@@@@@@@@@@@@@@@@@@@@@@@@@@@@@@",
"@@@@@@@@@@@@@@@@@@@@@@@@@@@@@@@@@@@@@@@@@@@@@@@@@@@@@@@@@@@@@@@@",
"@@@@@@@@@@@@@@@@@@@@@@@@@@@@@@@@@@@@@@@@@@@@@@@@@@@@@@@@@@@@@@@@",
"@@@@@@@@@@@@@@@@@@@@@@@@@@@@@@@@@@@@@@@@@@@@@@@@@@@@@@@@@@@@@@@@",
"@@@@@@@@@@@@@@@@@@@@@@@@@@@@@@@@@@@@@@@@@@@@@@@@@@@@@@@@@@@@@@@@",
"@@@@@@@@@@@@@@@@@@@@@@@@@@@@@@@@@@@@@@@@@@@@@@@@@@@@@@@@@@@@@@@@",
"@@@@@@@@@@@@@@@@@@@@@@@@@@@@        @@@@@@@@@@@@@@@@@@@@@@@@@@@@",
"@@@@@@@@@@@@@@@@@@@@@@@@@@@@        @@@@@@@@@@@@@@@@@@@@@@@@@@@@",
"@@@@@@@@@@@@@@@@@@@@@@@@@@@@        @@@@@@@@@@@@@@@@@@@@@@@@@@@@",
"@@@@@@@@@@@@@@@@@@@@@@@@@@@@        @@@@@@@@@@@@@@@@@@@@@@@@@@@@",
"@@@@@@@@@@@@@@@@@@@@        ........        @@@@@@@@@@@@@@@@@@@@",
"@@@@@@@@@@@@@@@@@@@@        ........        @@@@@@@@@@@@@@@@@@@@",
"@@@@@@@@@@@@@@@@@@@@        ........        @@@@@@@@@@@@@@@@@@@@",
"@@@@@@@@@@@@@@@@@@@@        ........        @@@@@@@@@@@@@@@@@@@@",
"@@@@@@@@@@@@@@@@@@@@    ++++++++oooooooo    @@@@@@@@@@@@@@@@@@@@",
"@@@@@@@@@@@@@@@@@@@@    ++++++++oooooooo    @@@@@@@@@@@@@@@@@@@@",
"@@@@@@@@@@@@@@@@@@@@    ++++++++oooooooo    @@@@@@@@@@@@@@@@@@@@",
"@@@@@@@@@@@@@@@@@@@@    ++++++++oooooooo    @@@@@@@@@@@@@@@@@@@@",
"@@@@@@@@@@@@@@@@@@@@@@@@    oooooooo    @@@@@@@@@@@@@@@@@@@@@@@@",
"@@@@@@@@@@@@@@@@@@@@@@@@    oooooooo    @@@@@@@@@@@@@@@@@@@@@@@@",
"@@@@@@@@@@@@@@@@@@@@@@@@    oooooooo    @@@@@@@@@@@@@@@@@@@@@@@@",
"@@@@@@@@@@@@@@@@@@@@@@@@    oooooooo    @@@@@@@@@@@@@@@@@@@@@@@@",
"@@@@@@@@@@@@@@@@@@@@    ++++OOOOOOOO++++    @@@@@@@@@@@@@@@@@@@@",
"@@@@@@@@@@@@@@@@@@@@    ++++OOOOOOOO++++    @@@@@@@@@@@@@@@@@@@@",
"@@@@@@@@@@@@@@@@@@@@    ++++OOOOOOOO++++    @@@@@@@@@@@@@@@@@@@@",
"@@@@@@@@@@@@@@@@@@@@    ++++OOOOOOOO++++    @@@@@@@@@@@@@@@@@@@@",
"@@@@@@@@@@@@@@@@    ++++OOOOOOOOXXXXXXXX++++    @@@@@@@@@@@@@@@@",
"@@@@@@@@@@@@@@@@    ++++OOOOOOOOXXXXXXXX++++    @@@@@@@@@@@@@@@@",
"@@@@@@@@@@@@@@@@    ++++OOOOOOOOXXXXXXXX++++    @@@@@@@@@@@@@@@@",
"@@@@@@@@@@@@@@@@    ++++OOOOOOOOXXXXXXXX++++    @@@@@@@@@@@@@@@@",
"@@@@@@@@@@@@@@@@    ++++OOOOXXXXXXXXXXXXoooo    @@@@@@@@@@@@@@@@",
"@@@@@@@@@@@@@@@@    ++++OOOOXXXXXXXXXXXXoooo    @@@@@@@@@@@@@@@@",
"@@@@@@@@@@@@@@@@    ++++OOOOXXXXXXXXXXXXoooo    @@@@@@@@@@@@@@@@",
"@@@@@@@@@@@@@@@@    ++++OOOOXXXXXXXXXXXXoooo    @@@@@@@@@@@@@@@@",
"@@@@@@@@@@@@@@@@    ++++++++XXXXXXXXoooooooo    @@@@@@@@@@@@@@@@",
"@@@@@@@@@@@@@@@@    ++++++++XXXXXXXXoooooooo    @@@@@@@@@@@@@@@@",
"@@@@@@@@@@@@@@@@    ++++++++XXXXXXXXoooooooo    @@@@@@@@@@@@@@@@",
"@@@@@@@@@@@@@@@@    ++++++++XXXXXXXXoooooooo    @@@@@@@@@@@@@@@@",
"@@@@@@@@@@@@@@@@@@@@    ++++oooooooooooo    @@@@@@@@@@@@@@@@@@@@",
"@@@@@@@@@@@@@@@@@@@@    ++++oooooooooooo    @@@@@@@@@@@@@@@@@@@@",
"@@@@@@@@@@@@@@@@@@@@    ++++oooooooooooo    @@@@@@@@@@@@@@@@@@@@",
"@@@@@@@@@@@@@@@@@@@@    ++++oooooooooooo    @@@@@@@@@@@@@@@@@@@@",
"@@@@@@@@@@@@@@@@@@@@@@@@                @@@@@@@@@@@@@@@@@@@@@@@@",
"@@@@@@@@@@@@@@@@@@@@@@@@                @@@@@@@@@@@@@@@@@@@@@@@@",
"@@@@@@@@@@@@@@@@@@@@@@@@                @@@@@@@@@@@@@@@@@@@@@@@@",
"@@@@@@@@@@@@@@@@@@@@@@@@                @@@@@@@@@@@@@@@@@@@@@@@@",
"@@@@@@@@@@@@@@@@@@@@@@@@@@@@@@@@@@@@@@@@@@@@@@@@@@@@@@@@@@@@@@@@",
"@@@@@@@@@@@@@@@@@@@@@@@@@@@@@@@@@@@@@@@@@@@@@@@@@@@@@@@@@@@@@@@@",
"@@@@@@@@@@@@@@@@@@@@@@@@@@@@@@@@@@@@@@@@@@@@@@@@@@@@@@@@@@@@@@@@",
"@@@@@@@@@@@@@@@@@@@@@@@@@@@@@@@@@@@@@@@@@@@@@@@@@@@@@@@@@@@@@@@@"
};
