/* XPM */
static char *result[] = {
/* columns rows colors chars-per-pixel */
"64 64 3 1 ",
"  c #84FF21",
". c #5ABDFF",
"X c white",
/* pixels */
"    XXXX    XXXX    XXXX    XXXX    XXXX    XXXX    XXXX    XXXX",
"    XXXX    XXXX    XXXX    XXXX    XXXX    XXXX    XXXX    XXXX",
"    XXXX    XXXX    XXXX    XXXX    XXXX    XXXX    XXXX    XXXX",
"    XXXX    XXXX    XXXX    XXXX    XXXX    XXXX    XXXX    XXXX",
"XXXX    XXXX....XXXX....XXXX    XXXX    XXXX....XXXX....XXXX    ",
"XXXX    XXXX....XXXX....XXXX    XXXX    XXXX....XXXX....XXXX    ",
"XXXX    XXXX....XXXX....XXXX    XXXX    XXXX....XXXX....XXXX    ",
"XXXX    XXXX....XXXX....XXXX    XXXX    XXXX....XXXX....XXXX    ",
"    ....    XXXX    XXXX    ....    ....    XXXX    XXXX    ....",
"    ....    XXXX    XXXX    ....    ....    XXXX    XXXX    ....",
"    ....    XXXX    XXXX    ....    ....    XXXX    XXXX    ....",
"    ....    XXXX    XXXX    ....    ....    XXXX    XXXX    ....",
"XXXX    XXXX    XXXX    XXXX    XXXX    XXXX    XXXX    XXXX    ",
"XXXX    XXXX    XXXX    XXXX    XXXX    XXXX    XXXX    XXXX    ",
"XXXX    XXXX    XXXX    XXXX    XXXX    XXXX    XXXX    XXXX    ",
"XXXX    XXXX    XXXX    XXXX    XXXX    XXXX    XXXX    XXXX    ",
"    XXXX    XXXX    XXXX    XXXX    XXXX    XXXX    XXXX    XXXX",
"    XXXX    XXXX    XXXX    XXXX    XXXX    XXXX    XXXX    XXXX",
"    XXXX    XXXX    XXXX    XXXX    XXXX    XXXX    XXXX    XXXX",
"    XXXX    XXXX    XXXX    XXXX    XXXX    XXXX    XXXX    XXXX",
"XXXX    XXXX    XXXX    XXXX    XXXX    XXXX    XXXX    XXXX    ",
"XXXX    XXXX    XXXX    XXXX    XXXX    XXXX    XXXX    XXXX    ",
"XXXX    XXXX    XXXX    XXXX    XXXX    XXXX    XXXX    XXXX    ",
"XXXX    XXXX    XXXX    XXXX    XXXX    XXXX    XXXX    XXXX    ",
"    XXXX    XXXX    XXXX    XXXX    XXXX    XXXX    XXXX    XXXX",
"    XXXX    XXXX    XXXX    XXXX    XXXX    XXXX    XXXX    XXXX",
"    XXXX    XXXX    XXXX    XXXX    XXXX    XXXX    XXXX    XXXX",
"    XXXX    XXXX    XXXX    XXXX    XXXX    XXXX    XXXX    XXXX",
"XXXX    XXXX    XXXX    XXXX    XXXX    XXXX    XXXX    XXXX    ",
"XXXX    XXXX    XXXX    XXXX    XXXX    XXXX    XXXX    XXXX    ",
"XXXX    XXXX    XXXX    XXXX    XXXX    XXXX    XXXX    XXXX    ",
"XXXX    XXXX    XXXX    XXXX    XXXX    XXXX    XXXX    XXXX    ",
"    XXXX    XXXX    XXXX    XXXX    XXXX    XXXX    XXXX    XXXX",
"    XXXX    XXXX    XXXX    XXXX    XXXX    XXXX    XXXX    XXXX",
"    XXXX    XXXX    XXXX    XXXX    XXXX    XXXX    XXXX    XXXX",
"    XXXX    XXXX    XXXX    XXXX    XXXX    XXXX    XXXX    XXXX",
"XXXX    XXXX....XXXX....XXXX    XXXX    XXXX....XXXX....XXXX    ",
"XXXX    XXXX....XXXX....XXXX    XXXX    XXXX....XXXX....XXXX    ",
"XXXX    XXXX....XXXX....XXXX    XXXX    XXXX....XXXX....XXXX    ",
"XXXX    XXXX....XXXX....XXXX    XXXX    XXXX....XXXX....XXXX    ",
"    ....    XXXX    XXXX    ....    ....    XXXX    XXXX    ....",
"    ....    XXXX    XXXX    ....    ....    XXXX    XXXX    ....",
"    ....    XXXX    XXXX    ....    ....    XXXX    XXXX    ....",
"    ....    XXXX    XXXX    ....    ....    XXXX    XXXX    ....",
"XXXX    XXXX    XXXX    XXXX    XXXX    XXXX    XXXX    XXXX    ",
"XXXX    XXXX    XXXX    XXXX    XXXX    XXXX    XXXX    XXXX    ",
"XXXX    XXXX    XXXX    XXXX    XXXX    XXXX    XXXX    XXXX    ",
"XXXX    XXXX    XXXX    XXXX    XXXX    XXXX    XXXX    XXXX    ",
"    XXXX    XXXX    XXXX    XXXX    XXXX    XXXX    XXXX    XXXX",
"    XXXX    XXXX    XXXX    XXXX    XXXX    XXXX    XXXX    XXXX",
"    XXXX    XXXX    XXXX    XXXX    XXXX    XXXX    XXXX    XXXX",
"    XXXX    XXXX    XXXX    XXXX    XXXX    XXXX    XXXX    XXXX",
"XXXX    XXXX    XXXX    XXXX    XXXX    XXXX    XXXX    XXXX    ",
"XXXX    XXXX    XXXX    XXXX    XXXX    XXXX    XXXX    XXXX    ",
"XXXX    XXXX    XXXX    XXXX    XXXX    XXXX    XXXX    XXXX    ",
"XXXX    XXXX    XXXX    XXXX    XXXX    XXXX    XXXX    XXXX    ",
"    XXXX    XXXX    XXXX    XXXX    XXXX    XXXX    XXXX    XXXX",
"    XXXX    XXXX    XXXX    XXXX    XXXX    XXXX    XXXX    XXXX",
"    XXXX    XXXX    XXXX    XXXX    XXXX    XXXX    XXXX    XXXX",
"    XXXX    XXXX    XXXX    XXXX    XXXX    XXXX    XXXX    XXXX",
"XXXX    XXXX    XXXX    XXXX    XXXX    XXXX    XXXX    XXXX    ",
"XXXX    XXXX    XXXX    XXXX    XXXX    XXXX    XXXX    XXXX    ",
"XXXX    XXXX    XXXX    XXXX    XXXX    XXXX    XXXX    XXXX    ",
"XXXX    XXXX    XXXX    XXXX    XXXX    XXXX    XXXX    XXXX    "
};
