/* XPM */
static char *result[] = {
/* columns rows colors chars-per-pixel */
"64 64 9 1 ",
"  c gray8",
". c #EC1C24",
"X c #84FF21",
"o c #B63788",
"O c #5ABDFF",
"+ c #F3CFBF",
"@ c #8C81D3",
"# c gray91",
"$ c white",
/* pixels */
"XXXX$$$$XXXX$$$$XXXX$$$$                XXXX$$$$XXXX$$$$XXXX$$$$",
"XXXX$$$$XXXX$$$$XXXX$$$$                XXXX$$$$XXXX$$$$XXXX$$$$",
"XXXX$$$$XXXX$$$$XXXX$$$$                XXXX$$$$XXXX$$$$XXXX$$$$",
"XXXX$$$$XXXX$$$$XXXX$$$$                XXXX$$$$XXXX$$$$XXXX$$$$",
"$$$$XXXX$$$$OOOO        @@@@@@@@@@@@@@@@        $$$$OOOO$$$$XXXX",
"$$$$XXXX$$$$OOOO        @@@@@@@@@@@@@@@@        $$$$OOOO$$$$XXXX",
"$$$$XXXX$$$$OOOO        @@@@@@@@@@@@@@@@        $$$$OOOO$$$$XXXX",
"$$$$XXXX$$$$OOOO        @@@@@@@@@@@@@@@@        $$$$OOOO$$$$XXXX",
"XXXXOOOOXXXX    @@@@@@@@@@@@@@@@@@@@@@@@@@@@@@@@    $$$$XXXXOOOO",
"XXXXOOOOXXXX    @@@@@@@@@@@@@@@@@@@@@@@@@@@@@@@@    $$$$XXXXOOOO",
"XXXXOOOOXXXX    @@@@@@@@@@@@@@@@@@@@@@@@@@@@@@@@    $$$$XXXXOOOO",
"XXXXOOOOXXXX    @@@@@@@@@@@@@@@@@@@@@@@@@@@@@@@@    $$$$XXXXOOOO",
"$$$$XXXX$$$$    @@@@@@@@@@@@@@@@@@@@@@@@@@@@@@@@@@@@    $$$$XXXX",
"$$$$XXXX$$$$    @@@@@@@@@@@@@@@@@@@@@@@@@@@@@@@@@@@@    $$$$XXXX",
"$$$$XXXX$$$$    @@@@@@@@@@@@@@@@@@@@@@@@@@@@@@@@@@@@    $$$$XXXX",
"$$$$XXXX$$$$    @@@@@@@@@@@@@@@@@@@@@@@@@@@@@@@@@@@@    $$$$XXXX",
"XXXX$$$$    @@@@@@@@@@@@@@@@@@@@@@@@@@@@@@@@@@@@@@@@    XXXX$$$$",
"XXXX$$$$    @@@@@@@@@@@@@@@@@@@@@@@@@@@@@@@@@@@@@@@@    XXXX$$$$",
"XXXX$$$$    @@@@@@@@@@@@@@@@@@@@@@@@@@@@@@@@@@@@@@@@    XXXX$$$$",
"XXXX$$$$    @@@@@@@@@@@@@@@@@@@@@@@@@@@@@@@@@@@@@@@@    XXXX$$$$",
"$$$$XXXX    @@@@@@@@@@@@++++++++++++++++@@@@@@@@@@@@    $$$$XXXX",
"$$$$XXXX    @@@@@@@@@@@@++++++++++++++++@@@@@@@@@@@@    $$$$XXXX",
"$$$$XXXX    @@@@@@@@@@@@++++++++++++++++@@@@@@@@@@@@    $$$$XXXX",
"$$$$XXXX    @@@@@@@@@@@@++++++++++++++++@@@@@@@@@@@@    $$$$XXXX",
"XXXX$$$$    @@@@@@@@    ++++++++++++++++    @@@@@@@@    XXXX$$$$",
"XXXX$$$$    @@@@@@@@    ++++++++++++++++    @@@@@@@@    XXXX$$$$",
"XXXX$$$$    @@@@@@@@    ++++++++++++++++    @@@@@@@@    XXXX$$$$",
"XXXX$$$$    @@@@@@@@    ++++++++++++++++    @@@@@@@@    XXXX$$$$",
"$$$$XXXX    @@@@@@@@++++    ++++++++    ++++@@@@@@@@    $$$$XXXX",
"$$$$XXXX    @@@@@@@@++++    ++++++++    ++++@@@@@@@@    $$$$XXXX",
"$$$$XXXX    @@@@@@@@++++    ++++++++    ++++@@@@@@@@    $$$$XXXX",
"$$$$XXXX    @@@@@@@@++++    ++++++++    ++++@@@@@@@@    $$$$XXXX",
"XXXX$$$$    @@@@@@@@++++    ++++++++    ++++@@@@@@@@    XXXX$$$$",
"XXXX$$$$    @@@@@@@@++++    ++++++++    ++++@@@@@@@@    XXXX$$$$",
"XXXX$$$$    @@@@@@@@++++    ++++++++    ++++@@@@@@@@    XXXX$$$$",
"XXXX$$$$    @@@@@@@@++++    ++++++++    ++++@@@@@@@@    XXXX$$$$",
"$$$$XXXX            ++++++++........++++++++            $$$$XXXX",
"$$$$XXXX            ++++++++........++++++++            $$$$XXXX",
"$$$$XXXX            ++++++++........++++++++            $$$$XXXX",
"$$$$XXXX            ++++++++........++++++++            $$$$XXXX",
"XXXXOOOOXXXX    ####                        ####    $$$$XXXXOOOO",
"XXXXOOOOXXXX    ####                        ####    $$$$XXXXOOOO",
"XXXXOOOOXXXX    ####                        ####    $$$$XXXXOOOO",
"XXXXOOOOXXXX    ####                        ####    $$$$XXXXOOOO",
"$$$$XXXX                ####oooooooo####                $$$$XXXX",
"$$$$XXXX                ####oooooooo####                $$$$XXXX",
"$$$$XXXX                ####oooooooo####                $$$$XXXX",
"$$$$XXXX                ####oooooooo####                $$$$XXXX",
"XXXX$$$$                                                XXXX$$$$",
"XXXX$$$$                                                XXXX$$$$",
"XXXX$$$$                                                XXXX$$$$",
"XXXX$$$$                                                XXXX$$$$",
"$$$$XXXX$$$$XXXX    ########################    $$$$XXXX$$$$XXXX",
"$$$$XXXX$$$$XXXX    ########################    $$$$XXXX$$$$XXXX",
"$$$$XXXX$$$$XXXX    ########################    $$$$XXXX$$$$XXXX",
"$$$$XXXX$$$$XXXX    ########################    $$$$XXXX$$$$XXXX",
"XXXX$$$$XXXX$$$$    ########        ########    XXXX$$$$XXXX$$$$",
"XXXX$$$$XXXX$$$$    ########        ########    XXXX$$$$XXXX$$$$",
"XXXX$$$$XXXX$$$$    ########        ########    XXXX$$$$XXXX$$$$",
"XXXX$$$$XXXX$$$$    ########        ########    XXXX$$$$XXXX$$$$",
"$$$$XXXX$$$$                XXXX$$$$                XXXX$$$$XXXX",
"$$$$XXXX$$$$                XXXX$$$$                XXXX$$$$XXXX",
"$$$$XXXX$$$$                XXXX$$$$                XXXX$$$$XXXX",
"$$$$XXXX$$$$                XXXX$$$$                XXXX$$$$XXXX"
};
