/* XPM */
static char *result[] = {
/* columns rows colors chars-per-pixel */
"60 64 8 1 ",
"  c gray8",
". c #EC1C24",
"X c #84FF21",
"o c #B63788",
"O c #5ABDFF",
"+ c #F3CFBF",
"@ c gray91",
"# c white",
/* pixels */
"XXXX####XXXX####                ####XXXX####XXXX####XXXX####",
"XXXX####XXXX####                ####XXXX####XXXX####XXXX####",
"XXXX####XXXX####                ####XXXX####XXXX####XXXX####",
"XXXX####XXXX####                ####XXXX####XXXX####XXXX####",
"####XXXX        oooooooooooooooo        OOOO####OOOO####XXXX",
"####XXXX        oooooooooooooooo        OOOO####OOOO####XXXX",
"####XXXX        oooooooooooooooo        OOOO####OOOO####XXXX",
"####XXXX        oooooooooooooooo        OOOO####OOOO####XXXX",
"XXXX    oooooooooooooooooooooooooooooooo        ####XXXXOOOO",
"XXXX    oooooooooooooooooooooooooooooooo        ####XXXXOOOO",
"XXXX    oooooooooooooooooooooooooooooooo        ####XXXXOOOO",
"XXXX    oooooooooooooooooooooooooooooooo        ####XXXXOOOO",
"####    oooooooooooooooooooooooooooooooooooooooo    ####XXXX",
"####    oooooooooooooooooooooooooooooooooooooooo    ####XXXX",
"####    oooooooooooooooooooooooooooooooooooooooo    ####XXXX",
"####    oooooooooooooooooooooooooooooooooooooooo    ####XXXX",
"    oooooooooooooooooooooooooooooooooooooooooooo    XXXX####",
"    oooooooooooooooooooooooooooooooooooooooooooo    XXXX####",
"    oooooooooooooooooooooooooooooooooooooooooooo    XXXX####",
"    oooooooooooooooooooooooooooooooooooooooooooo    XXXX####",
"    oooooooo++++++++oooooooo++++++++oooooooooooooooo    XXXX",
"    oooooooo++++++++oooooooo++++++++oooooooooooooooo    XXXX",
"    oooooooo++++++++oooooooo++++++++oooooooooooooooo    XXXX",
"    oooooooo++++++++oooooooo++++++++oooooooooooooooo    XXXX",
"        ++++    ++++++++++++++++    ++++    oooooooo    ####",
"        ++++    ++++++++++++++++    ++++    oooooooo    ####",
"        ++++    ++++++++++++++++    ++++    oooooooo    ####",
"        ++++    ++++++++++++++++    ++++    oooooooo    ####",
"    ++++++++++++    ++++++++    ++++++++++++    oooooooo    ",
"    ++++++++++++    ++++++++    ++++++++++++    oooooooo    ",
"    ++++++++++++    ++++++++    ++++++++++++    oooooooo    ",
"    ++++++++++++    ++++++++    ++++++++++++    oooooooo    ",
"XXXX    ++++++++    ++++++++    ++++++++    oooooooooooo    ",
"XXXX    ++++++++    ++++++++    ++++++++    oooooooooooo    ",
"XXXX    ++++++++    ++++++++    ++++++++    oooooooooooo    ",
"XXXX    ++++++++    ++++++++    ++++++++    oooooooooooo    ",
"####XXXX    ++++++++........++++++++        oooooooooooo    ",
"####XXXX    ++++++++........++++++++        oooooooooooo    ",
"####XXXX    ++++++++........++++++++        oooooooooooo    ",
"####XXXX    ++++++++........++++++++        oooooooooooo    ",
"XXXX    @@@@                        @@@@        oooooooo    ",
"XXXX    @@@@                        @@@@        oooooooo    ",
"XXXX    @@@@                        @@@@        oooooooo    ",
"XXXX    @@@@                        @@@@        oooooooo    ",
"                @@@@oooooooo@@@@                oooo    XXXX",
"                @@@@oooooooo@@@@                oooo    XXXX",
"                @@@@oooooooo@@@@                oooo    XXXX",
"                @@@@oooooooo@@@@                oooo    XXXX",
"                                                oooo    ####",
"                                                oooo    ####",
"                                                oooo    ####",
"                                                oooo    ####",
"####XXXX    @@@@@@@@@@@@@@@@@@@@@@@@        oooo    ####XXXX",
"####XXXX    @@@@@@@@@@@@@@@@@@@@@@@@        oooo    ####XXXX",
"####XXXX    @@@@@@@@@@@@@@@@@@@@@@@@        oooo    ####XXXX",
"####XXXX    @@@@@@@@@@@@@@@@@@@@@@@@        oooo    ####XXXX",
"XXXX####XXXX                        XXXX        ####XXXX####",
"XXXX####XXXX                        XXXX        ####XXXX####",
"XXXX####XXXX                        XXXX        ####XXXX####",
"XXXX####XXXX                        XXXX        ####XXXX####",
"####XXXX            XXXX####            XXXX####XXXX####XXXX",
"####XXXX            XXXX####            XXXX####XXXX####XXXX",
"####XXXX            XXXX####            XXXX####XXXX####XXXX",
"####XXXX            XXXX####            XXXX####XXXX####XXXX"
};
