/* XPM */
static char *result[] = {
/* columns rows colors chars-per-pixel */
"64 64 8 1 ",
"  c gray8",
". c #EC1C24",
"X c #84FF21",
"o c #B63788",
"O c #5ABDFF",
"+ c #F3CFBF",
"@ c gray91",
"# c white",
/* pixels */
"XXXX####XXXX                        ####XXXX####XXXX####XXXX####",
"XXXX####XXXX                        ####XXXX####XXXX####XXXX####",
"XXXX####XXXX                        ####XXXX####XXXX####XXXX####",
"XXXX####XXXX                        ####XXXX####XXXX####XXXX####",
"####        oooooooooooooooooooooooo        OOOO####OOOO####XXXX",
"####        oooooooooooooooooooooooo        OOOO####OOOO####XXXX",
"####        oooooooooooooooooooooooo        OOOO####OOOO####XXXX",
"####        oooooooooooooooooooooooo        OOOO####OOOO####XXXX",
"    oooooooooooooooooooooooooooooooooooooooo    XXXX####XXXXOOOO",
"    oooooooooooooooooooooooooooooooooooooooo    XXXX####XXXXOOOO",
"    oooooooooooooooooooooooooooooooooooooooo    XXXX####XXXXOOOO",
"    oooooooooooooooooooooooooooooooooooooooo    XXXX####XXXXOOOO",
"    oooooooooooooooooooooooooooooooooooooooooooo    XXXX####XXXX",
"    oooooooooooooooooooooooooooooooooooooooooooo    XXXX####XXXX",
"    oooooooooooooooooooooooooooooooooooooooooooo    XXXX####XXXX",
"    oooooooooooooooooooooooooooooooooooooooooooo    XXXX####XXXX",
"    oooooooo++++++++++++oooooooooooooooooooooooooooo    XXXX####",
"    oooooooo++++++++++++oooooooooooooooooooooooooooo    XXXX####",
"    oooooooo++++++++++++oooooooooooooooooooooooooooo    XXXX####",
"    oooooooo++++++++++++oooooooooooooooooooooooooooo    XXXX####",
"####    ++++++++    ++++++++        oooooooooooooooo    ####XXXX",
"####    ++++++++    ++++++++        oooooooooooooooo    ####XXXX",
"####    ++++++++    ++++++++        oooooooooooooooo    ####XXXX",
"####    ++++++++    ++++++++        oooooooooooooooo    ####XXXX",
"XXXX    ++++    ++++++++++++    ++++    oooooooooooooooo    ####",
"XXXX    ++++    ++++++++++++    ++++    oooooooooooooooo    ####",
"XXXX    ++++    ++++++++++++    ++++    oooooooooooooooo    ####",
"XXXX    ++++    ++++++++++++    ++++    oooooooooooooooo    ####",
"####    ++++    ++++++++++++++++++++    oooooooooooooooo    XXXX",
"####    ++++    ++++++++++++++++++++    oooooooooooooooo    XXXX",
"####    ++++    ++++++++++++++++++++    oooooooooooooooo    XXXX",
"####    ++++    ++++++++++++++++++++    oooooooooooooooo    XXXX",
"XXXX    ++++++++++++++++++++++++++++    oooooooooooooooo    ####",
"XXXX    ++++++++++++++++++++++++++++    oooooooooooooooo    ####",
"XXXX    ++++++++++++++++++++++++++++    oooooooooooooooo    ####",
"XXXX    ++++++++++++++++++++++++++++    oooooooooooooooo    ####",
"####XXXX    ....++++++++++++                oooooooooooo    XXXX",
"####XXXX    ....++++++++++++                oooooooooooo    XXXX",
"####XXXX    ....++++++++++++                oooooooooooo    XXXX",
"####XXXX    ....++++++++++++                oooooooooooo    XXXX",
"XXXXOOOOXXXX                    XXXXOOOOXXXX    oooooooo    OOOO",
"XXXXOOOOXXXX                    XXXXOOOOXXXX    oooooooo    OOOO",
"XXXXOOOOXXXX                    XXXXOOOOXXXX    oooooooo    OOOO",
"XXXXOOOOXXXX                    XXXXOOOOXXXX    oooooooo    OOOO",
"####XXXX####    oooo    @@@@        XXXX####    oooooooo    XXXX",
"####XXXX####    oooo    @@@@        XXXX####    oooooooo    XXXX",
"####XXXX####    oooo    @@@@        XXXX####    oooooooo    XXXX",
"####XXXX####    oooo    @@@@        XXXX####    oooooooo    XXXX",
"XXXX####XXXX            @@@@        ####XXXX####        XXXX####",
"XXXX####XXXX            @@@@        ####XXXX####        XXXX####",
"XXXX####XXXX            @@@@        ####XXXX####        XXXX####",
"XXXX####XXXX            @@@@        ####XXXX####        XXXX####",
"####XXXX####    @@@@            @@@@    ####        XXXX####XXXX",
"####XXXX####    @@@@            @@@@    ####        XXXX####XXXX",
"####XXXX####    @@@@            @@@@    ####        XXXX####XXXX",
"####XXXX####    @@@@            @@@@    ####        XXXX####XXXX",
"XXXX####XXXX                            XXXX####XXXX####XXXX####",
"XXXX####XXXX                            XXXX####XXXX####XXXX####",
"XXXX####XXXX                            XXXX####XXXX####XXXX####",
"XXXX####XXXX                            XXXX####XXXX####XXXX####",
"####XXXX                        ####XXXX####XXXX####XXXX####XXXX",
"####XXXX                        ####XXXX####XXXX####XXXX####XXXX",
"####XXXX                        ####XXXX####XXXX####XXXX####XXXX",
"####XXXX                        ####XXXX####XXXX####XXXX####XXXX"
};
