/* XPM */
static char *result[] = {
/* columns rows colors chars-per-pixel */
"32 48 13 1 ",
"  c #281820",
". c #302838",
"X c #482830",
"o c #586028",
"O c #985058",
"+ c #F88010",
"@ c #F8C028",
"# c #90A050",
"$ c #F89868",
"% c #F078F8",
"& c #F8E0A8",
"* c #F8F8F8",
"= c None",
/* pixels */
"================================",
"================================",
"================================",
"================================",
"================================",
"================================",
"================================",
"================================",
"========.====.   .==============",
"=======.=.== o##oX =============",
"========.== o#ooXoo ============",
"========.=.X#o##oX#X.===========",
"========.= o#X##oX#o ===========",
"========. @XoX##oXXO ===========",
"======== O*OXXXXOO+@X.==========",
"======== @*O@****@@O ===========",
"========.O* O+@@+OXXO.==========",
"========= @X**XX**XO%.==========",
"=========.OX*&OO*&XO%.==========",
"==========. O$*&$OX .===========",
"============ X$$XXO@+.==========",
"===========.O@XXO@* *@.=========",
"==========.+X+**@XX* .==========",
"==========.oOXOOX+X@*.==========",
"=========.#XO@O@@Oo..===========",
"=========.XOX+X+OX#.============",
"========= $& X*XX o#.===========",
"=========.$X+OX@OXo#.===========",
"========== X+O+++O o.===========",
"=========== XO@@+O &$.==========",
"===========.OXOXX .O.===========",
"===========.O$ $& =.============",
"============.& O&O.=============",
"============.$ X$$ =============",
"============.XO XOX.============",
"===========.X#o o#o ============",
"=========== O+O XOO ============",
"========== X@OX X+@O.===========",
"=========== X  = O+X  ==========",
"=================   ============",
"================================",
"================================",
"================================",
"================================",
"================================",
"================================",
"================================",
"================================"
};
