/* XPM */
static char *result[] = {
/* columns rows colors chars-per-pixel */
"64 64 4 1 ",
"  c gray19",
". c #FF7F27",
"X c gray66",
"o c #F8F8F8",
/* pixels */
"................................................................",
"................................................................",
"................................................................",
"................................................................",
"............................        ............................",
"............................        ............................",
"............................        ............................",
"............................        ............................",
"....                        oooooooo                        ....",
"....                        oooooooo                        ....",
"....                        oooooooo                        ....",
"....                        oooooooo                        ....",
"....    oooooooo    XXXX    oooooooo    XXXX    oooooooo    ....",
"....    oooooooo    XXXX    oooooooo    XXXX    oooooooo    ....",
"....    oooooooo    XXXX    oooooooo    XXXX    oooooooo    ....",
"....    oooooooo    XXXX    oooooooo    XXXX    oooooooo    ....",
"........    ooooXXXXXXXXXXXXXXXXXXXXXXXXXXXXXXXXoooo    ........",
"........    ooooXXXXXXXXXXXXXXXXXXXXXXXXXXXXXXXXoooo    ........",
"........    ooooXXXXXXXXXXXXXXXXXXXXXXXXXXXXXXXXoooo    ........",
"........    ooooXXXXXXXXXXXXXXXXXXXXXXXXXXXXXXXXoooo    ........",
"............    XXXX    XXXXXXXXXXXXXXXX    XXXX    ............",
"............    XXXX    XXXXXXXXXXXXXXXX    XXXX    ............",
"............    XXXX    XXXXXXXXXXXXXXXX    XXXX    ............",
"............    XXXX    XXXXXXXXXXXXXXXX    XXXX    ............",
"........    XXXXXXXX        oooooooo        XXXXXXXX    ........",
"........    XXXXXXXX        oooooooo        XXXXXXXX    ........",
"........    XXXXXXXX        oooooooo        XXXXXXXX    ........",
"........    XXXXXXXX        oooooooo        XXXXXXXX    ........",
"            XXXXXXXXXXXXXXXXXXXXXXXXXXXXXXXXXXXXXXXX            ",
"            XXXXXXXXXXXXXXXXXXXXXXXXXXXXXXXXXXXXXXXX            ",
"            XXXXXXXXXXXXXXXXXXXXXXXXXXXXXXXXXXXXXXXX            ",
"            XXXXXXXXXXXXXXXXXXXXXXXXXXXXXXXXXXXXXXXX            ",
"    XXXXXXXX            XXXXooooooooXXXX            XXXXXXXX    ",
"    XXXXXXXX            XXXXooooooooXXXX            XXXXXXXX    ",
"    XXXXXXXX            XXXXooooooooXXXX            XXXXXXXX    ",
"    XXXXXXXX            XXXXooooooooXXXX            XXXXXXXX    ",
"    XXXXXXXXXXXX    oooo                oooo    XXXXXXXXXXXX    ",
"    XXXXXXXXXXXX    oooo                oooo    XXXXXXXXXXXX    ",
"    XXXXXXXXXXXX    oooo                oooo    XXXXXXXXXXXX    ",
"    XXXXXXXXXXXX    oooo                oooo    XXXXXXXXXXXX    ",
"....    XXXX    XXXX    oooooooooooooooo    XXXX    XXXX    ....",
"....    XXXX    XXXX    oooooooooooooooo    XXXX    XXXX    ....",
"....    XXXX    XXXX    oooooooooooooooo    XXXX    XXXX    ....",
"....    XXXX    XXXX    oooooooooooooooo    XXXX    XXXX    ....",
"........        XXXXXXXX                XXXXXXXX        ........",
"........        XXXXXXXX                XXXXXXXX        ........",
"........        XXXXXXXX                XXXXXXXX        ........",
"........        XXXXXXXX                XXXXXXXX        ........",
"........        XXXXooooooooooooooooooooooooXXXX        ........",
"........        XXXXooooooooooooooooooooooooXXXX        ........",
"........        XXXXooooooooooooooooooooooooXXXX        ........",
"........        XXXXooooooooooooooooooooooooXXXX        ........",
"........    XXXX        oooooooooooooooo        XXXX    ........",
"........    XXXX        oooooooooooooooo        XXXX    ........",
"........    XXXX        oooooooooooooooo        XXXX    ........",
"........    XXXX        oooooooooooooooo        XXXX    ........",
"........    ooooXXXXoooo                ooooXXXXoooo    ........",
"........    ooooXXXXoooo                ooooXXXXoooo    ........",
"........    ooooXXXXoooo                ooooXXXXoooo    ........",
"........    ooooXXXXoooo                ooooXXXXoooo    ........",
"............            ................            ............",
"............            ................            ............",
"............            ................            ............",
"............            ................            ............"
};
