/* XPM */
static char *result[] = {
/* columns rows colors chars-per-pixel */
"64 64 7 1 ",
"  c gray8",
". c #EC1C24",
"X c #B97A56",
"o c #84FF21",
"O c #FFCA18",
"+ c #5ABDFF",
"@ c white",
/* pixels */
"oooo@@@@oooo@@@@oooo@@@@oooo@@@@oooo@@@@oooo@@@@oooo@@@@oooo@@@@",
"oooo@@@@oooo@@@@oooo@@@@oooo@@@@oooo@@@@oooo@@@@oooo@@@@oooo@@@@",
"oooo@@@@oooo@@@@oooo@@@@oooo@@@@oooo@@@@oooo@@@@oooo@@@@oooo@@@@",
"oooo@@@@oooo@@@@oooo@@@@oooo@@@@oooo@@@@oooo@@@@oooo@@@@oooo@@@@",
"@@@@oooo@@@@++++@@@@++++@@@@oooo@@@@oooo@@@@++++@@@@++++@@@@oooo",
"@@@@oooo@@@@++++@@@@++++@@@@oooo@@@@oooo@@@@++++@@@@++++@@@@oooo",
"@@@@oooo@@@@++++@@@@++++@@@@oooo@@@@oooo@@@@++++@@@@++++@@@@oooo",
"@@@@oooo@@@@++++@@@@++++@@@@oooo@@@@oooo@@@@++++@@@@++++@@@@oooo",
"oooo++++oooo@@@@oooo@@@@oooo++++oooo++++        oooo@@@@oooo++++",
"oooo++++oooo@@@@oooo@@@@oooo++++oooo++++        oooo@@@@oooo++++",
"oooo++++oooo@@@@oooo@@@@oooo++++oooo++++        oooo@@@@oooo++++",
"oooo++++oooo@@@@oooo@@@@oooo++++oooo++++        oooo@@@@oooo++++",
"@@@@oooo@@@@oooo@@@@oooo@@@@                                    ",
"@@@@oooo@@@@oooo@@@@oooo@@@@                                    ",
"@@@@oooo@@@@oooo@@@@oooo@@@@                                    ",
"@@@@oooo@@@@oooo@@@@oooo@@@@                                    ",
"oooo@@@@oooo@@@@            OOOOOOOO            OOOOOOOOOOOO    ",
"oooo@@@@oooo@@@@            OOOOOOOO            OOOOOOOOOOOO    ",
"oooo@@@@oooo@@@@            OOOOOOOO            OOOOOOOOOOOO    ",
"oooo@@@@oooo@@@@            OOOOOOOO            OOOOOOOOOOOO    ",
"@@@@oooo@@@@    OOOOOOOOOOOOOOOOOOOOOOOO    OOOOOOOOOOOO    oooo",
"@@@@oooo@@@@    OOOOOOOOOOOOOOOOOOOOOOOO    OOOOOOOOOOOO    oooo",
"@@@@oooo@@@@    OOOOOOOOOOOOOOOOOOOOOOOO    OOOOOOOOOOOO    oooo",
"@@@@oooo@@@@    OOOOOOOOOOOOOOOOOOOOOOOO    OOOOOOOOOOOO    oooo",
"oooo@@@@    OOOOOOOOOOOOOOOOOOOOOOOO        OOOOOOOO    oooo@@@@",
"oooo@@@@    OOOOOOOOOOOOOOOOOOOOOOOO        OOOOOOOO    oooo@@@@",
"oooo@@@@    OOOOOOOOOOOOOOOOOOOOOOOO        OOOOOOOO    oooo@@@@",
"oooo@@@@    OOOOOOOOOOOOOOOOOOOOOOOO        OOOOOOOO    oooo@@@@",
"@@@@oooo    OOOOOOOOOOOOOOOOOOOOOOOO    OOOOOOOO    oooo@@@@oooo",
"@@@@oooo    OOOOOOOOOOOOOOOOOOOOOOOO    OOOOOOOO    oooo@@@@oooo",
"@@@@oooo    OOOOOOOOOOOOOOOOOOOOOOOO    OOOOOOOO    oooo@@@@oooo",
"@@@@oooo    OOOOOOOOOOOOOOOOOOOOOOOO    OOOOOOOO    oooo@@@@oooo",
"oooo    OOOOOOOO    OOOOOOOOOOOOOOOOOOOO    OOOO            @@@@",
"oooo    OOOOOOOO    OOOOOOOOOOOOOOOOOOOO    OOOO            @@@@",
"oooo    OOOOOOOO    OOOOOOOOOOOOOOOOOOOO    OOOO            @@@@",
"oooo    OOOOOOOO    OOOOOOOOOOOOOOOOOOOO    OOOO            @@@@",
"@@@@    OOOOOOOOOOOOOOOO....OOOOOOOOOOOO    OOOOOOOOOOOO    oooo",
"@@@@    OOOOOOOOOOOOOOOO....OOOOOOOOOOOO    OOOOOOOOOOOO    oooo",
"@@@@    OOOOOOOOOOOOOOOO....OOOOOOOOOOOO    OOOOOOOOOOOO    oooo",
"@@@@    OOOOOOOOOOOOOOOO....OOOOOOOOOOOO    OOOOOOOOOOOO    oooo",
"oooo++++    OOOOOOOOOOOOOOOOOOOOXXXXXXXXXXXX    XXXX    oooo++++",
"oooo++++    OOOOOOOOOOOOOOOOOOOOXXXXXXXXXXXX    XXXX    oooo++++",
"oooo++++    OOOOOOOOOOOOOOOOOOOOXXXXXXXXXXXX    XXXX    oooo++++",
"oooo++++    OOOOOOOOOOOOOOOOOOOOXXXXXXXXXXXX    XXXX    oooo++++",
"@@@@oooo    OOOO    OOOOOOOOOOOOOOOOOOOOOOOO    XXXXXXXX    oooo",
"@@@@oooo    OOOO    OOOOOOOOOOOOOOOOOOOOOOOO    XXXXXXXX    oooo",
"@@@@oooo    OOOO    OOOOOOOOOOOOOOOOOOOOOOOO    XXXXXXXX    oooo",
"@@@@oooo    OOOO    OOOOOOOOOOOOOOOOOOOOOOOO    XXXXXXXX    oooo",
"oooo@@@@    OOOO        OOOOOOOOXXXXXXXXXXXX    XXXX    oooo@@@@",
"oooo@@@@    OOOO        OOOOOOOOXXXXXXXXXXXX    XXXX    oooo@@@@",
"oooo@@@@    OOOO        OOOOOOOOXXXXXXXXXXXX    XXXX    oooo@@@@",
"oooo@@@@    OOOO        OOOOOOOOXXXXXXXXXXXX    XXXX    oooo@@@@",
"@@@@oooo    OOOOOOOOOOOOOOOOOOOOOOOOOOOO            oooo@@@@oooo",
"@@@@oooo    OOOOOOOOOOOOOOOOOOOOOOOOOOOO            oooo@@@@oooo",
"@@@@oooo    OOOOOOOOOOOOOOOOOOOOOOOOOOOO            oooo@@@@oooo",
"@@@@oooo    OOOOOOOOOOOOOOOOOOOOOOOOOOOO            oooo@@@@oooo",
"oooo@@@@oooo        OOOOOOOOOOOO        oooo@@@@oooo@@@@oooo@@@@",
"oooo@@@@oooo        OOOOOOOOOOOO        oooo@@@@oooo@@@@oooo@@@@",
"oooo@@@@oooo        OOOOOOOOOOOO        oooo@@@@oooo@@@@oooo@@@@",
"oooo@@@@oooo        OOOOOOOOOOOO        oooo@@@@oooo@@@@oooo@@@@",
"@@@@oooo@@@@oooo@@@@            @@@@oooo@@@@oooo@@@@oooo@@@@oooo",
"@@@@oooo@@@@oooo@@@@            @@@@oooo@@@@oooo@@@@oooo@@@@oooo",
"@@@@oooo@@@@oooo@@@@            @@@@oooo@@@@oooo@@@@oooo@@@@oooo",
"@@@@oooo@@@@oooo@@@@            @@@@oooo@@@@oooo@@@@oooo@@@@oooo"
};
