/* XPM */
static char *result[] = {
/* columns rows colors chars-per-pixel */
"64 64 5 1 ",
"  c gray8",
". c #84FF21",
"X c #FFCA18",
"o c #5ABDFF",
"O c white",
/* pixels */
"....OOOO....OOOO....OOOO....OOOO....OOOO....OOOO....OOOO....OOOO",
"....OOOO....OOOO....OOOO....OOOO....OOOO....OOOO....OOOO....OOOO",
"....OOOO....OOOO....OOOO....OOOO....OOOO....OOOO....OOOO....OOOO",
"....OOOO....OOOO....OOOO....OOOO....OOOO....OOOO....OOOO....OOOO",
"OOOO            OOOOooooOOOO....OOOO....OOOO            OOOO....",
"OOOO            OOOOooooOOOO....OOOO....OOOO            OOOO....",
"OOOO            OOOOooooOOOO....OOOO....OOOO            OOOO....",
"OOOO            OOOOooooOOOO....OOOO....OOOO            OOOO....",
"....        XXXX    OOOO....oooo....oooo    XXXX        ....oooo",
"....        XXXX    OOOO....oooo....oooo    XXXX        ....oooo",
"....        XXXX    OOOO....oooo....oooo    XXXX        ....oooo",
"....        XXXX    OOOO....oooo....oooo    XXXX        ....oooo",
"OOOO....    XXXXXXXX                    XXXXXXXX            ....",
"OOOO....    XXXXXXXX                    XXXXXXXX            ....",
"OOOO....    XXXXXXXX                    XXXXXXXX            ....",
"OOOO....    XXXXXXXX                    XXXXXXXX            ....",
"....OOOO....    XXXXXXXXXXXXXXXXXXXXXXXXXXXX    XXXXXXXXXXXX    ",
"....OOOO....    XXXXXXXXXXXXXXXXXXXXXXXXXXXX    XXXXXXXXXXXX    ",
"....OOOO....    XXXXXXXXXXXXXXXXXXXXXXXXXXXX    XXXXXXXXXXXX    ",
"....OOOO....    XXXXXXXXXXXXXXXXXXXXXXXXXXXX    XXXXXXXXXXXX    ",
"OOOO....OOOO    XXXX    XXXXXXXXXXXX    XXXX    XXXXXXXX    ....",
"OOOO....OOOO    XXXX    XXXXXXXXXXXX    XXXX    XXXXXXXX    ....",
"OOOO....OOOO    XXXX    XXXXXXXXXXXX    XXXX    XXXXXXXX    ....",
"OOOO....OOOO    XXXX    XXXXXXXXXXXX    XXXX    XXXXXXXX    ....",
"....OOOO....    XXXXXXXXXXXX    XXXXXXXXXXXX    XXXX    ....OOOO",
"....OOOO....    XXXXXXXXXXXX    XXXXXXXXXXXX    XXXX    ....OOOO",
"....OOOO....    XXXXXXXXXXXX    XXXXXXXXXXXX    XXXX    ....OOOO",
"....OOOO....    XXXXXXXXXXXX    XXXXXXXXXXXX    XXXX    ....OOOO",
"OOOO....    XXXX    XXXX            XXXX    XXXX            ....",
"OOOO....    XXXX    XXXX            XXXX    XXXX            ....",
"OOOO....    XXXX    XXXX            XXXX    XXXX            ....",
"OOOO....    XXXX    XXXX            XXXX    XXXX            ....",
"....OOOO    XXXXXXXXXXXXXXXXXXXXXXXXXXXXXXXXXXXX    XXXXXXXX    ",
"....OOOO    XXXXXXXXXXXXXXXXXXXXXXXXXXXXXXXXXXXX    XXXXXXXX    ",
"....OOOO    XXXXXXXXXXXXXXXXXXXXXXXXXXXXXXXXXXXX    XXXXXXXX    ",
"....OOOO    XXXXXXXXXXXXXXXXXXXXXXXXXXXXXXXXXXXX    XXXXXXXX    ",
"OOOO....    XXXXXXXX    XXXXXXXXXXXX    XXXXXXXX    XXXX    ....",
"OOOO....    XXXXXXXX    XXXXXXXXXXXX    XXXXXXXX    XXXX    ....",
"OOOO....    XXXXXXXX    XXXXXXXXXXXX    XXXXXXXX    XXXX    ....",
"OOOO....    XXXXXXXX    XXXXXXXXXXXX    XXXXXXXX    XXXX    ....",
"....oooo    XXXX        XXXXXXXXXXXX        XXXX        ....oooo",
"....oooo    XXXX        XXXXXXXXXXXX        XXXX        ....oooo",
"....oooo    XXXX        XXXXXXXXXXXX        XXXX        ....oooo",
"....oooo    XXXX        XXXXXXXXXXXX        XXXX        ....oooo",
"OOOO....    XXXXXXXXXXXXXXXXXXXXXXXXXXXXXXXXXXXX    ....OOOO....",
"OOOO....    XXXXXXXXXXXXXXXXXXXXXXXXXXXXXXXXXXXX    ....OOOO....",
"OOOO....    XXXXXXXXXXXXXXXXXXXXXXXXXXXXXXXXXXXX    ....OOOO....",
"OOOO....    XXXXXXXXXXXXXXXXXXXXXXXXXXXXXXXXXXXX    ....OOOO....",
"....OOOO....            XXXXXXXXXXXXXXXXXXXX    ....OOOO....OOOO",
"....OOOO....            XXXXXXXXXXXXXXXXXXXX    ....OOOO....OOOO",
"....OOOO....            XXXXXXXXXXXXXXXXXXXX    ....OOOO....OOOO",
"....OOOO....            XXXXXXXXXXXXXXXXXXXX    ....OOOO....OOOO",
"OOOO....OOOO    XXXXXXXX                    ....OOOO....OOOO....",
"OOOO....OOOO    XXXXXXXX                    ....OOOO....OOOO....",
"OOOO....OOOO    XXXXXXXX                    ....OOOO....OOOO....",
"OOOO....OOOO    XXXXXXXX                    ....OOOO....OOOO....",
"....OOOO....OOOO        ....OOOO....OOOO....OOOO....OOOO....OOOO",
"....OOOO....OOOO        ....OOOO....OOOO....OOOO....OOOO....OOOO",
"....OOOO....OOOO        ....OOOO....OOOO....OOOO....OOOO....OOOO",
"....OOOO....OOOO        ....OOOO....OOOO....OOOO....OOOO....OOOO",
"OOOO....OOOO....OOOO....OOOO....OOOO....OOOO....OOOO....OOOO....",
"OOOO....OOOO....OOOO....OOOO....OOOO....OOOO....OOOO....OOOO....",
"OOOO....OOOO....OOOO....OOOO....OOOO....OOOO....OOOO....OOOO....",
"OOOO....OOOO....OOOO....OOOO....OOOO....OOOO....OOOO....OOOO...."
};
