/* XPM */
static char *result[] = {
/* columns rows colors chars-per-pixel */
"64 64 6 1 ",
"  c gray8",
". c #B97A56",
"X c #84FF21",
"o c #FFCA18",
"O c #5ABDFF",
"+ c white",
/* pixels */
"XXXX++++XXXX++++XXXX++++XXXX++++XXXX++++XXXX++++XXXX++++XXXX++++",
"XXXX++++XXXX++++XXXX++++XXXX++++XXXX++++XXXX++++XXXX++++XXXX++++",
"XXXX++++XXXX++++XXXX++++XXXX++++XXXX++++XXXX++++XXXX++++XXXX++++",
"XXXX++++XXXX++++XXXX++++XXXX++++XXXX++++XXXX++++XXXX++++XXXX++++",
"++++            ++++OOOO++++XXXX++++XXXX++++        OOOO++++XXXX",
"++++            ++++OOOO++++XXXX++++XXXX++++        OOOO++++XXXX",
"++++            ++++OOOO++++XXXX++++XXXX++++        OOOO++++XXXX",
"++++            ++++OOOO++++XXXX++++XXXX++++        OOOO++++XXXX",
"XXXX        oooo    ++++XXXXOOOOXXXXOOOO        oooo    XXXXOOOO",
"XXXX        oooo    ++++XXXXOOOOXXXXOOOO        oooo    XXXXOOOO",
"XXXX        oooo    ++++XXXXOOOOXXXXOOOO        oooo    XXXXOOOO",
"XXXX        oooo    ++++XXXXOOOOXXXXOOOO        oooo    XXXXOOOO",
"++++XXXX    oooooooo                        oooooooooooo    XXXX",
"++++XXXX    oooooooo                        oooooooooooo    XXXX",
"++++XXXX    oooooooo                        oooooooooooo    XXXX",
"++++XXXX    oooooooo                        oooooooooooo    XXXX",
"XXXX++++XXXX    oooooooooooooooooooooooo    oooooooo    XXXX++++",
"XXXX++++XXXX    oooooooooooooooooooooooo    oooooooo    XXXX++++",
"XXXX++++XXXX    oooooooooooooooooooooooo    oooooooo    XXXX++++",
"XXXX++++XXXX    oooooooooooooooooooooooo    oooooooo    XXXX++++",
"++++XXXX++++    oooooooooooooooooooo    oooooooo    XXXX++++XXXX",
"++++XXXX++++    oooooooooooooooooooo    oooooooo    XXXX++++XXXX",
"++++XXXX++++    oooooooooooooooooooo    oooooooo    XXXX++++XXXX",
"++++XXXX++++    oooooooooooooooooooo    oooooooo    XXXX++++XXXX",
"XXXX++++XXXX    oooooooooooooooooooo    oooooooooooo        ++++",
"XXXX++++XXXX    oooooooooooooooooooo    oooooooooooo        ++++",
"XXXX++++XXXX    oooooooooooooooooooo    oooooooooooo        ++++",
"XXXX++++XXXX    oooooooooooooooooooo    oooooooooooo        ++++",
"++++XXXX    oooooooooooooooooooooooooooo        oooooooo    XXXX",
"++++XXXX    oooooooooooooooooooooooooooo        oooooooo    XXXX",
"++++XXXX    oooooooooooooooooooooooooooo        oooooooo    XXXX",
"++++XXXX    oooooooooooooooooooooooooooo        oooooooo    XXXX",
"XXXX++++    ............................    ........    XXXX++++",
"XXXX++++    ............................    ........    XXXX++++",
"XXXX++++    ............................    ........    XXXX++++",
"XXXX++++    ............................    ........    XXXX++++",
"++++XXXX    oooooooooooooooooooooooo    ........    XXXX++++XXXX",
"++++XXXX    oooooooooooooooooooooooo    ........    XXXX++++XXXX",
"++++XXXX    oooooooooooooooooooooooo    ........    XXXX++++XXXX",
"++++XXXX    oooooooooooooooooooooooo    ........    XXXX++++XXXX",
"XXXXOOOO    ................................        ++++XXXXOOOO",
"XXXXOOOO    ................................        ++++XXXXOOOO",
"XXXXOOOO    ................................        ++++XXXXOOOO",
"XXXXOOOO    ................................        ++++XXXXOOOO",
"++++XXXX    oooooooooooooooooooooooooooooooooooo    XXXX++++XXXX",
"++++XXXX    oooooooooooooooooooooooooooooooooooo    XXXX++++XXXX",
"++++XXXX    oooooooooooooooooooooooooooooooooooo    XXXX++++XXXX",
"++++XXXX    oooooooooooooooooooooooooooooooooooo    XXXX++++XXXX",
"XXXX++++XXXX    oooooooooooooooooooo        oooo    ++++XXXX++++",
"XXXX++++XXXX    oooooooooooooooooooo        oooo    ++++XXXX++++",
"XXXX++++XXXX    oooooooooooooooooooo        oooo    ++++XXXX++++",
"XXXX++++XXXX    oooooooooooooooooooo        oooo    ++++XXXX++++",
"++++XXXX++++XXXX                    oooooooo    ++++XXXX++++XXXX",
"++++XXXX++++XXXX                    oooooooo    ++++XXXX++++XXXX",
"++++XXXX++++XXXX                    oooooooo    ++++XXXX++++XXXX",
"++++XXXX++++XXXX                    oooooooo    ++++XXXX++++XXXX",
"XXXX++++XXXX++++XXXX++++XXXX++++XXXX        ++++XXXX++++XXXX++++",
"XXXX++++XXXX++++XXXX++++XXXX++++XXXX        ++++XXXX++++XXXX++++",
"XXXX++++XXXX++++XXXX++++XXXX++++XXXX        ++++XXXX++++XXXX++++",
"XXXX++++XXXX++++XXXX++++XXXX++++XXXX        ++++XXXX++++XXXX++++",
"++++XXXX++++XXXX++++XXXX++++XXXX++++XXXX++++XXXX++++XXXX++++XXXX",
"++++XXXX++++XXXX++++XXXX++++XXXX++++XXXX++++XXXX++++XXXX++++XXXX",
"++++XXXX++++XXXX++++XXXX++++XXXX++++XXXX++++XXXX++++XXXX++++XXXX",
"++++XXXX++++XXXX++++XXXX++++XXXX++++XXXX++++XXXX++++XXXX++++XXXX"
};
