/* XPM */
static char *result[] = {
/* columns rows colors chars-per-pixel */
"64 64 6 1 ",
"  c gray19",
". c #EC1C24",
"X c #84FF21",
"o c #5ABDFF",
"O c #F8F8F8",
"+ c white",
/* pixels */
"XXXX++++XXXX++++XXXX++++XXXX++++XXXX++++XXXX++++XXXX++++XXXX++++",
"XXXX++++XXXX++++XXXX++++XXXX++++XXXX++++XXXX++++XXXX++++XXXX++++",
"XXXX++++XXXX++++XXXX++++XXXX++++XXXX++++XXXX++++XXXX++++XXXX++++",
"XXXX++++XXXX++++XXXX++++XXXX++++XXXX++++XXXX++++XXXX++++XXXX++++",
"++++XXXX++++oooo++++oooo++++XXXX++++XXXX++++oooo++++oooo++++XXXX",
"++++XXXX++++oooo++++oooo++++XXXX++++XXXX++++oooo++++oooo++++XXXX",
"++++XXXX++++oooo++++oooo++++XXXX++++XXXX++++oooo++++oooo++++XXXX",
"++++XXXX++++oooo++++oooo++++XXXX++++XXXX++++oooo++++oooo++++XXXX",
"XXXXooooXXXX++++XXXX++++                XXXX++++XXXX++++XXXXoooo",
"XXXXooooXXXX++++XXXX++++                XXXX++++XXXX++++XXXXoooo",
"XXXXooooXXXX++++XXXX++++                XXXX++++XXXX++++XXXXoooo",
"XXXXooooXXXX++++XXXX++++                XXXX++++XXXX++++XXXXoooo",
"++++XXXX++++XXXX        ................        ++++XXXX++++XXXX",
"++++XXXX++++XXXX        ................        ++++XXXX++++XXXX",
"++++XXXX++++XXXX        ................        ++++XXXX++++XXXX",
"++++XXXX++++XXXX        ................        ++++XXXX++++XXXX",
"XXXX++++XXXX    ............OOOOOOOO............    ++++XXXX++++",
"XXXX++++XXXX    ............OOOOOOOO............    ++++XXXX++++",
"XXXX++++XXXX    ............OOOOOOOO............    ++++XXXX++++",
"XXXX++++XXXX    ............OOOOOOOO............    ++++XXXX++++",
"++++XXXX++++    ............OOOOOOOO............    XXXX++++XXXX",
"++++XXXX++++    ............OOOOOOOO............    XXXX++++XXXX",
"++++XXXX++++    ............OOOOOOOO............    XXXX++++XXXX",
"++++XXXX++++    ............OOOOOOOO............    XXXX++++XXXX",
"XXXX++++    ........................................    XXXX++++",
"XXXX++++    ........................................    XXXX++++",
"XXXX++++    ........................................    XXXX++++",
"XXXX++++    ........................................    XXXX++++",
"++++XXXX    ........................................    ++++XXXX",
"++++XXXX    ........................................    ++++XXXX",
"++++XXXX    ........................................    ++++XXXX",
"++++XXXX    ........................................    ++++XXXX",
"XXXX++++    OOOOOOOO........................OOOOOOOO    XXXX++++",
"XXXX++++    OOOOOOOO........................OOOOOOOO    XXXX++++",
"XXXX++++    OOOOOOOO........................OOOOOOOO    XXXX++++",
"XXXX++++    OOOOOOOO........................OOOOOOOO    XXXX++++",
"++++XXXX    OOOOOOOOOOOOOOOOOOOOOOOOOOOOOOOOOOOOOOOO    ++++XXXX",
"++++XXXX    OOOOOOOOOOOOOOOOOOOOOOOOOOOOOOOOOOOOOOOO    ++++XXXX",
"++++XXXX    OOOOOOOOOOOOOOOOOOOOOOOOOOOOOOOOOOOOOOOO    ++++XXXX",
"++++XXXX    OOOOOOOOOOOOOOOOOOOOOOOOOOOOOOOOOOOOOOOO    ++++XXXX",
"XXXXooooXXXX    OOOOOOOOOOOOOOOOOOOOOOOOOOOOOOOO    ++++XXXXoooo",
"XXXXooooXXXX    OOOOOOOOOOOOOOOOOOOOOOOOOOOOOOOO    ++++XXXXoooo",
"XXXXooooXXXX    OOOOOOOOOOOOOOOOOOOOOOOOOOOOOOOO    ++++XXXXoooo",
"XXXXooooXXXX    OOOOOOOOOOOOOOOOOOOOOOOOOOOOOOOO    ++++XXXXoooo",
"++++XXXX++++    OOOOOOOOOOOOOOOOOOOOOOOOOOOOOOOO    XXXX++++XXXX",
"++++XXXX++++    OOOOOOOOOOOOOOOOOOOOOOOOOOOOOOOO    XXXX++++XXXX",
"++++XXXX++++    OOOOOOOOOOOOOOOOOOOOOOOOOOOOOOOO    XXXX++++XXXX",
"++++XXXX++++    OOOOOOOOOOOOOOOOOOOOOOOOOOOOOOOO    XXXX++++XXXX",
"XXXX++++XXXX++++        OOOOOOOOOOOOOOOO        XXXX++++XXXX++++",
"XXXX++++XXXX++++        OOOOOOOOOOOOOOOO        XXXX++++XXXX++++",
"XXXX++++XXXX++++        OOOOOOOOOOOOOOOO        XXXX++++XXXX++++",
"XXXX++++XXXX++++        OOOOOOOOOOOOOOOO        XXXX++++XXXX++++",
"++++XXXX++++XXXX++++XXXX                ++++XXXX++++XXXX++++XXXX",
"++++XXXX++++XXXX++++XXXX                ++++XXXX++++XXXX++++XXXX",
"++++XXXX++++XXXX++++XXXX                ++++XXXX++++XXXX++++XXXX",
"++++XXXX++++XXXX++++XXXX                ++++XXXX++++XXXX++++XXXX",
"XXXX++++XXXX++++XXXX++++XXXX++++XXXX++++XXXX++++XXXX++++XXXX++++",
"XXXX++++XXXX++++XXXX++++XXXX++++XXXX++++XXXX++++XXXX++++XXXX++++",
"XXXX++++XXXX++++XXXX++++XXXX++++XXXX++++XXXX++++XXXX++++XXXX++++",
"XXXX++++XXXX++++XXXX++++XXXX++++XXXX++++XXXX++++XXXX++++XXXX++++",
"++++XXXX++++XXXX++++XXXX++++XXXX++++XXXX++++XXXX++++XXXX++++XXXX",
"++++XXXX++++XXXX++++XXXX++++XXXX++++XXXX++++XXXX++++XXXX++++XXXX",
"++++XXXX++++XXXX++++XXXX++++XXXX++++XXXX++++XXXX++++XXXX++++XXXX",
"++++XXXX++++XXXX++++XXXX++++XXXX++++XXXX++++XXXX++++XXXX++++XXXX"
};
