/* XPM */
static char *_7ea833688224c1cef6a6509cde64b81s1B2oqI7zxrHqdmj[] = {
/* columns rows colors chars-per-pixel */
"64 64 7 1 ",
"  c #181818",
". c #585858",
"X c #0ED145",
"o c #84FF21",
"O c #5ABDFF",
"+ c #C3C3C3",
"@ c white",
/* pixels */
"oooo@@@@oooo@@@@oooo@@@@oooo@@@@oooo@@@@oooo@@@@oooo@@@@oooo@@@@",
"oooo@@@@oooo@@@@oooo@@@@oooo@@@@oooo@@@@oooo@@@@oooo@@@@oooo@@@@",
"oooo@@@@oooo@@@@oooo@@@@oooo@@@@oooo@@@@oooo@@@@oooo@@@@oooo@@@@",
"oooo@@@@oooo@@@@oooo@@@@oooo@@@@oooo@@@@oooo@@@@oooo@@@@oooo@@@@",
"@@@@oooo@@@@            @@@@oooo@@@@oooo            OOOO@@@@oooo",
"@@@@oooo@@@@            @@@@oooo@@@@oooo            OOOO@@@@oooo",
"@@@@oooo@@@@            @@@@oooo@@@@oooo            OOOO@@@@oooo",
"@@@@oooo@@@@            @@@@oooo@@@@oooo            OOOO@@@@oooo",
"ooooOOOOoooo    ++++                        ++++    @@@@ooooOOOO",
"ooooOOOOoooo    ++++                        ++++    @@@@ooooOOOO",
"ooooOOOOoooo    ++++                        ++++    @@@@ooooOOOO",
"ooooOOOOoooo    ++++                        ++++    @@@@ooooOOOO",
"@@@@oooo@@@@    ++++                        ++++    oooo@@@@oooo",
"@@@@oooo@@@@    ++++                        ++++    oooo@@@@oooo",
"@@@@oooo@@@@    ++++                        ++++    oooo@@@@oooo",
"@@@@oooo@@@@    ++++                        ++++    oooo@@@@oooo",
"oooo@@@@        ++++....++++++++++++++++....++++        oooo@@@@",
"oooo@@@@        ++++....++++++++++++++++....++++        oooo@@@@",
"oooo@@@@        ++++....++++++++++++++++....++++        oooo@@@@",
"oooo@@@@        ++++....++++++++++++++++....++++        oooo@@@@",
"@@@@oooo        ++++                        ++++        @@@@oooo",
"@@@@oooo        ++++                        ++++        @@@@oooo",
"@@@@oooo        ++++                        ++++        @@@@oooo",
"@@@@oooo        ++++                        ++++        @@@@oooo",
"oooo            ++++                        ++++            @@@@",
"oooo            ++++                        ++++            @@@@",
"oooo            ++++                        ++++            @@@@",
"oooo            ++++                        ++++            @@@@",
"@@@@            ++++....++++++++++++++++....++++            oooo",
"@@@@            ++++....++++++++++++++++....++++            oooo",
"@@@@            ++++....++++++++++++++++....++++            oooo",
"@@@@            ++++....++++++++++++++++....++++            oooo",
"oooo            XXXX                        XXXX            @@@@",
"oooo            XXXX                        XXXX            @@@@",
"oooo            XXXX                        XXXX            @@@@",
"oooo            XXXX                        XXXX            @@@@",
"@@@@            XXXX                        XXXX            oooo",
"@@@@            XXXX                        XXXX            oooo",
"@@@@            XXXX                        XXXX            oooo",
"@@@@            XXXX                        XXXX            oooo",
"ooooOOOO        ................................        ooooOOOO",
"ooooOOOO        ................................        ooooOOOO",
"ooooOOOO        ................................        ooooOOOO",
"ooooOOOO        ................................        ooooOOOO",
"@@@@oooo        ....                        ....        @@@@oooo",
"@@@@oooo        ....                        ....        @@@@oooo",
"@@@@oooo        ....                        ....        @@@@oooo",
"@@@@oooo        ....                        ....        @@@@oooo",
"oooo@@@@oooo                                        @@@@oooo@@@@",
"oooo@@@@oooo                                        @@@@oooo@@@@",
"oooo@@@@oooo                                        @@@@oooo@@@@",
"oooo@@@@oooo                                        @@@@oooo@@@@",
"@@@@oooo@@@@oooo@@@@                        oooo@@@@oooo@@@@oooo",
"@@@@oooo@@@@oooo@@@@                        oooo@@@@oooo@@@@oooo",
"@@@@oooo@@@@oooo@@@@                        oooo@@@@oooo@@@@oooo",
"@@@@oooo@@@@oooo@@@@                        oooo@@@@oooo@@@@oooo",
"oooo@@@@oooo@@@@oooo@@@@oooo@@@@oooo@@@@oooo@@@@oooo@@@@oooo@@@@",
"oooo@@@@oooo@@@@oooo@@@@oooo@@@@oooo@@@@oooo@@@@oooo@@@@oooo@@@@",
"oooo@@@@oooo@@@@oooo@@@@oooo@@@@oooo@@@@oooo@@@@oooo@@@@oooo@@@@",
"oooo@@@@oooo@@@@oooo@@@@oooo@@@@oooo@@@@oooo@@@@oooo@@@@oooo@@@@",
"@@@@oooo@@@@oooo@@@@oooo@@@@oooo@@@@oooo@@@@oooo@@@@oooo@@@@oooo",
"@@@@oooo@@@@oooo@@@@oooo@@@@oooo@@@@oooo@@@@oooo@@@@oooo@@@@oooo",
"@@@@oooo@@@@oooo@@@@oooo@@@@oooo@@@@oooo@@@@oooo@@@@oooo@@@@oooo",
"@@@@oooo@@@@oooo@@@@oooo@@@@oooo@@@@oooo@@@@oooo@@@@oooo@@@@oooo"
};
