/* XPM */
static char *result[] = {
/* columns rows colors chars-per-pixel */
"64 64 4 1 ",
"  c #181818",
". c #84FF21",
"X c #5ABDFF",
"o c white",
/* pixels */
"XXXXoooo....ooooXXXXooooXXXX        oooo....ooooXXXXooooXXXXoooo",
"XXXXoooo....ooooXXXXooooXXXX        oooo....ooooXXXXooooXXXXoooo",
"XXXXoooo....ooooXXXXooooXXXX        oooo....ooooXXXXooooXXXXoooo",
"XXXXoooo....ooooXXXXooooXXXX        oooo....ooooXXXXooooXXXXoooo",
"oooooooooooo....ooooXXXX    oooo....    oooo....ooooXXXXooooXXXX",
"oooooooooooo....ooooXXXX    oooo....    oooo....ooooXXXXooooXXXX",
"oooooooooooo....ooooXXXX    oooo....    oooo....ooooXXXXooooXXXX",
"oooooooooooo....ooooXXXX    oooo....    oooo....ooooXXXXooooXXXX",
"oooooooooooooooo        oooo....ooooXXXX        ....oooooooooooo",
"oooooooooooooooo        oooo....ooooXXXX        ....oooooooooooo",
"oooooooooooooooo        oooo....ooooXXXX        ....oooooooooooo",
"oooooooooooooooo        oooo....ooooXXXX        ....oooooooooooo",
"oooo....oooo    ....oooo....oooo    XXXX    ....    ooooooooXXXX",
"oooo....oooo    ....oooo....oooo    XXXX    ....    ooooooooXXXX",
"oooo....oooo    ....oooo....oooo    XXXX    ....    ooooooooXXXX",
"oooo....oooo    ....oooo....oooo    XXXX    ....    ooooooooXXXX",
"XXXXoooo    ....    ....oooo....XXXX    XXXX    XXXX    XXXXoooo",
"XXXXoooo    ....    ....oooo....XXXX    XXXX    XXXX    XXXXoooo",
"XXXXoooo    ....    ....oooo....XXXX    XXXX    XXXX    XXXXoooo",
"XXXXoooo    ....    ....oooo....XXXX    XXXX    XXXX    XXXXoooo",
"oooo            ....oooo........    XXXX            XXXX    oooo",
"oooo            ....oooo........    XXXX            XXXX    oooo",
"oooo            ....oooo........    XXXX            XXXX    oooo",
"oooo            ....oooo........    XXXX            XXXX    oooo",
"XXXX    oooo    ............    XXXX    XXXX                oooo",
"XXXX    oooo    ............    XXXX    XXXX                oooo",
"XXXX    oooo    ............    XXXX    XXXX                oooo",
"XXXX    oooo    ............    XXXX    XXXX                oooo",
"    XXXX....XXXX    ........XXXX                    XXXXXXXX    ",
"    XXXX....XXXX    ........XXXX                    XXXXXXXX    ",
"    XXXX....XXXX    ........XXXX                    XXXXXXXX    ",
"    XXXX....XXXX    ........XXXX                    XXXXXXXX    ",
"XXXX    oooo    ....    XXXX    XXXX            XXXX        oooo",
"XXXX    oooo    ....    XXXX    XXXX            XXXX        oooo",
"XXXX    oooo    ....    XXXX    XXXX            XXXX        oooo",
"XXXX    oooo    ....    XXXX    XXXX            XXXX        oooo",
"    ooooXXXX....    ....    XXXX    XXXX            XXXXXXXX    ",
"    ooooXXXX....    ....    XXXX    XXXX            XXXXXXXX    ",
"    ooooXXXX....    ....    XXXX    XXXX            XXXXXXXX    ",
"    ooooXXXX....    ....    XXXX    XXXX            XXXXXXXX    ",
"oooo    XXXX........    XXXX    XXXX                        oooo",
"oooo    XXXX........    XXXX    XXXX                        oooo",
"oooo    XXXX........    XXXX    XXXX                        oooo",
"oooo    XXXX........    XXXX    XXXX                        oooo",
"oooo....        ....XXXXXXXXXXXX    XXXX    XXXX            XXXX",
"oooo....        ....XXXXXXXXXXXX    XXXX    XXXX            XXXX",
"oooo....        ....XXXXXXXXXXXX    XXXX    XXXX            XXXX",
"oooo....        ....XXXXXXXXXXXX    XXXX    XXXX            XXXX",
"XXXXoooo    ooooXXXXXXXXXXXXXXXXXXXXXXXXXXXX    XXXX    XXXXoooo",
"XXXXoooo    ooooXXXXXXXXXXXXXXXXXXXXXXXXXXXX    XXXX    XXXXoooo",
"XXXXoooo    ooooXXXXXXXXXXXXXXXXXXXXXXXXXXXX    XXXX    XXXXoooo",
"XXXXoooo    ooooXXXXXXXXXXXXXXXXXXXXXXXXXXXX    XXXX    XXXXoooo",
"ooooooooXXXX        XXXX    ....XXXX    XXXX        XXXXoooooooo",
"ooooooooXXXX        XXXX    ....XXXX    XXXX        XXXXoooooooo",
"ooooooooXXXX        XXXX    ....XXXX    XXXX        XXXXoooooooo",
"ooooooooXXXX        XXXX    ....XXXX    XXXX        XXXXoooooooo",
"XXXXooooXXXXXXXXXXXX                        XXXXXXXXXXXXoooooooo",
"XXXXooooXXXXXXXXXXXX                        XXXXXXXXXXXXoooooooo",
"XXXXooooXXXXXXXXXXXX                        XXXXXXXXXXXXoooooooo",
"XXXXooooXXXXXXXXXXXX                        XXXXXXXXXXXXoooooooo",
"ooooXXXXooooXXXXXXXXXXXX                XXXXXXXXXXXXooooooooXXXX",
"ooooXXXXooooXXXXXXXXXXXX                XXXXXXXXXXXXooooooooXXXX",
"ooooXXXXooooXXXXXXXXXXXX                XXXXXXXXXXXXooooooooXXXX",
"ooooXXXXooooXXXXXXXXXXXX                XXXXXXXXXXXXooooooooXXXX"
};
