/* XPM */
static char *result[] = {
/* columns rows colors chars-per-pixel */
"64 64 12 1 ",
"  c black",
". c gray7",
"X c #25131A",
"o c #313B35",
"O c #44504F",
"+ c #64594F",
"@ c #606E6D",
"# c #BC4C51",
"$ c #9A8571",
"% c #E6A353",
"& c #CDD5D0",
"* c None",
/* pixels */
"****************************************************************",
"****************************************************************",
"****************************************************************",
"****************************************************************",
"************************XXXXXXXXXXXXXXXXXXXXXXXX****************",
"************************XXXXXXXXXXXXXXXXXXXXXXXX****************",
"************************XXXXXXXXXXXXXXXXXXXXXXXX****************",
"************************XXXXXXXXXXXXXXXXXXXXXXXX****************",
"********************XXXX........................XXXX************",
"********************XXXX........................XXXX************",
"********************XXXX........................XXXX************",
"********************XXXX........................XXXX************",
"****************XXXX....................OOOO....XXXX************",
"****************XXXX....................OOOO....XXXX************",
"****************XXXX....................OOOO....XXXX************",
"****************XXXX....................OOOO....XXXX************",
"****************........OOOOoooooooo@@@@oooooooo    XXXX********",
"****************........OOOOoooooooo@@@@oooooooo    XXXX********",
"****************........OOOOoooooooo@@@@oooooooo    XXXX********",
"****************........OOOOoooooooo@@@@oooooooo    XXXX********",
"************####....OOOO@@@@oooo&&&&@@@@oooo&&&&XXXX************",
"************####....OOOO@@@@oooo&&&&@@@@oooo&&&&XXXX************",
"************####....OOOO@@@@oooo&&&&@@@@oooo&&&&XXXX************",
"************####....OOOO@@@@oooo&&&&@@@@oooo&&&&XXXX************",
"********........####OOOO@@@@OOOOOOOO@@@@OOOOOOOOXXXX************",
"********........####OOOO@@@@OOOOOOOO@@@@OOOOOOOOXXXX************",
"********........####OOOO@@@@OOOOOOOO@@@@OOOOOOOOXXXX************",
"********........####OOOO@@@@OOOOOOOO@@@@OOOOOOOOXXXX************",
"********************XXXXOOOO@@@@@@@@@@@@@@@@@@@@XXXX************",
"********************XXXXOOOO@@@@@@@@@@@@@@@@@@@@XXXX************",
"********************XXXXOOOO@@@@@@@@@@@@@@@@@@@@XXXX************",
"********************XXXXOOOO@@@@@@@@@@@@@@@@@@@@XXXX************",
"****************XXXXXXXXXXXXXXXX&&&&XXXXXXXX&&&&XXXX************",
"****************XXXXXXXXXXXXXXXX&&&&XXXXXXXX&&&&XXXX************",
"****************XXXXXXXXXXXXXXXX&&&&XXXXXXXX&&&&XXXX************",
"****************XXXXXXXXXXXXXXXX&&&&XXXXXXXX&&&&XXXX************",
"************XXXX$$$$++++$$$$$$$$$$$$$$$$$$$$$$$$++++XXXX********",
"************XXXX$$$$++++$$$$$$$$$$$$$$$$$$$$$$$$++++XXXX********",
"************XXXX$$$$++++$$$$$$$$$$$$$$$$$$$$$$$$++++XXXX********",
"************XXXX$$$$++++$$$$$$$$$$$$$$$$$$$$$$$$++++XXXX********",
"************XXXX++++$$$$$$$$$$$$XXXX%%%%XXXX$$$$++++XXXX********",
"************XXXX++++$$$$$$$$$$$$XXXX%%%%XXXX$$$$++++XXXX********",
"************XXXX++++$$$$$$$$$$$$XXXX%%%%XXXX$$$$++++XXXX********",
"************XXXX++++$$$$$$$$$$$$XXXX%%%%XXXX$$$$++++XXXX********",
"************XXXXXXXXXXXXXXXXXXXXXXXXXXXXXXXXXXXXXXXXXXXX********",
"************XXXXXXXXXXXXXXXXXXXXXXXXXXXXXXXXXXXXXXXXXXXX********",
"************XXXXXXXXXXXXXXXXXXXXXXXXXXXXXXXXXXXXXXXXXXXX********",
"************XXXXXXXXXXXXXXXXXXXXXXXXXXXXXXXXXXXXXXXXXXXX********",
"****************XXXX++++++++++++++++XXXX++++++++XXXX************",
"****************XXXX++++++++++++++++XXXX++++++++XXXX************",
"****************XXXX++++++++++++++++XXXX++++++++XXXX************",
"****************XXXX++++++++++++++++XXXX++++++++XXXX************",
"****************XXXX$$$$++++$$$$$$$$XXXX$$$$++++XXXX************",
"****************XXXX$$$$++++$$$$$$$$XXXX$$$$++++XXXX************",
"****************XXXX$$$$++++$$$$$$$$XXXX$$$$++++XXXX************",
"****************XXXX$$$$++++$$$$$$$$XXXX$$$$++++XXXX************",
"************XXXX$$$$++++$$$$$$$$XXXXXXXXXXXX++++XXXX************",
"************XXXX$$$$++++$$$$$$$$XXXXXXXXXXXX++++XXXX************",
"************XXXX$$$$++++$$$$$$$$XXXXXXXXXXXX++++XXXX************",
"************XXXX$$$$++++$$$$$$$$XXXXXXXXXXXX++++XXXX************",
"****************************************************************",
"****************************************************************",
"****************************************************************",
"****************************************************************"
};
